<?xml version="1.0" encoding="UTF-8"?>
<svg xmlns="http://www.w3.org/2000/svg" xmlns:xlink="http://www.w3.org/1999/xlink" width="40px" height="40px" viewBox="0 0 40 40" version="1.1">
<g id="surface1">
<rect x="0" y="0" width="40" height="40" style="fill:rgb(21.960784%,26.666668%,35.294119%);fill-opacity:1;stroke:none;"/>
<path style="fill-rule:nonzero;fill:rgb(70.588237%,56.470591%,51.764709%);fill-opacity:1;stroke-width:0.1;stroke-linecap:butt;stroke-linejoin:miter;stroke:rgb(100%,84.313726%,0%);stroke-opacity:1;stroke-miterlimit:4;" d="M 0.00426951 86.606118 C 16.339132 86.606118 16.339132 66.598434 32.673994 66.598434 C 38.199021 66.598434 42.683101 71.081894 42.683101 76.612152 C 42.683101 82.122659 38.199021 86.606118 32.673994 86.606118 C 29.911481 86.606118 27.689459 84.354513 27.689459 81.609135 C 27.689459 78.844006 29.911481 76.612152 32.673994 76.612152 C 22.684906 76.612152 22.684906 86.606118 12.675799 86.606118 Z M 0.00426951 86.606118 " transform="matrix(0.195135,0,0,0.197776,20.311667,20.254237)"/>
<path style="fill-rule:nonzero;fill:rgb(70.588237%,56.470591%,51.764709%);fill-opacity:1;stroke-width:0.1;stroke-linecap:butt;stroke-linejoin:miter;stroke:rgb(100%,84.313726%,0%);stroke-opacity:1;stroke-miterlimit:4;" d="M -0.00426951 86.606118 C 16.330593 86.606118 16.330593 66.598434 32.685473 66.598434 C 38.2105 66.598434 42.674562 71.081894 42.674562 76.612152 C 42.674562 82.122659 38.2105 86.606118 32.685473 86.606118 C 29.92296 86.606118 27.68092 84.354513 27.68092 81.609135 C 27.68092 78.844006 29.92296 76.612152 32.685473 76.612152 C 22.676366 76.612152 22.676366 86.606118 12.687278 86.606118 Z M -0.00426951 86.606118 " transform="matrix(-0.195135,0,0,0.197776,20.311667,20.254237)"/>
<path style="fill-rule:nonzero;fill:rgb(90.980393%,91.764706%,86.666667%);fill-opacity:1;stroke-width:0.1;stroke-linecap:butt;stroke-linejoin:miter;stroke:rgb(100%,84.313726%,0%);stroke-opacity:1;stroke-miterlimit:4;" d="M -0.00357917 86.59827 C 16.330433 86.59827 16.330433 66.600074 32.684197 66.600074 C 38.194704 66.600074 42.678163 71.084154 42.678163 76.609181 C 42.678163 82.134208 38.194704 86.59827 32.684197 86.59827 C 29.919067 86.59827 27.687213 84.35623 27.687213 81.593716 C 27.687213 78.831203 29.919067 76.609181 32.684197 76.609181 C 22.670479 76.609181 22.670479 86.59827 12.676513 86.59827 Z M -0.00357917 86.59827 " transform="matrix(0,-0.197776,-0.195135,0,37.210836,37.382105)"/>
<path style="fill-rule:nonzero;fill:rgb(90.980393%,91.764706%,86.666667%);fill-opacity:1;stroke-width:0.1;stroke-linecap:butt;stroke-linejoin:miter;stroke:rgb(100%,84.313726%,0%);stroke-opacity:1;stroke-miterlimit:4;" d="M -0.00357917 86.606809 C 16.330433 86.606809 16.330433 66.608613 32.684197 66.608613 C 38.194704 66.608613 42.678163 71.072675 42.678163 76.597702 C 42.678163 82.122729 38.194704 86.606809 32.684197 86.606809 C 29.919067 86.606809 27.687213 84.364769 27.687213 81.602255 C 27.687213 78.839742 29.919067 76.597702 32.684197 76.597702 C 22.670479 76.597702 22.670479 86.606809 12.676513 86.606809 Z M -0.00357917 86.606809 " transform="matrix(0.000000000000000012,-0.197776,0.195135,0.000000000000000012,3.412498,37.382105)"/>
<path style="fill-rule:nonzero;fill:rgb(70.588237%,56.470591%,51.764709%);fill-opacity:1;stroke-width:0.1;stroke-linecap:butt;stroke-linejoin:miter;stroke:rgb(100%,84.313726%,0%);stroke-opacity:1;stroke-miterlimit:4;" d="M 0.00426951 -0.0016742 C 0.00426951 17.951914 7.991537 17.951914 7.991537 35.925253 C 7.991537 33.713149 6.209916 31.915816 4.007912 31.915816 C 1.785891 31.915816 0.00426951 33.713149 0.00426951 35.925253 C 0.00426951 40.349459 3.58753 43.924376 7.991537 43.924376 C 12.415562 43.924376 15.998822 40.349459 15.998822 35.925253 C 15.998822 17.951914 0.00426951 17.951914 0.00426951 -0.0016742 " transform="matrix(0.195135,0,0,0.197776,20.311667,20.254237)"/>
<path style="fill-rule:nonzero;fill:rgb(70.588237%,56.470591%,51.764709%);fill-opacity:1;stroke-width:0.1;stroke-linecap:butt;stroke-linejoin:miter;stroke:rgb(100%,84.313726%,0%);stroke-opacity:1;stroke-miterlimit:4;" d="M -0.00426951 -0.0016742 C -0.00426951 17.951914 8.003016 17.951914 8.003016 35.925253 C 8.003016 33.713149 6.201377 31.915816 3.999373 31.915816 C 1.79737 31.915816 -0.00426951 33.713149 -0.00426951 35.925253 C -0.00426951 40.349459 3.578991 43.924376 8.003016 43.924376 C 12.427041 43.924376 15.990283 40.349459 15.990283 35.925253 C 15.990283 17.951914 -0.00426951 17.951914 -0.00426951 -0.0016742 " transform="matrix(-0.195135,0,0,0.197776,20.311667,20.254237)"/>
<path style="fill-rule:nonzero;fill:rgb(70.588237%,56.470591%,51.764709%);fill-opacity:1;stroke-width:0.1;stroke-linecap:butt;stroke-linejoin:miter;stroke:rgb(100%,84.313726%,0%);stroke-opacity:1;stroke-miterlimit:4;" d="M -0.00971976 86.601523 C 16.338137 86.609026 16.350995 66.598823 32.681747 66.59645 C 38.202365 66.593905 42.684106 71.076873 42.686602 76.602809 C 42.671992 82.118869 38.206612 86.613984 32.668889 86.606653 C 29.90858 86.607926 27.667709 84.366442 27.688571 81.604681 C 27.682319 78.850382 29.915009 76.602824 32.675318 76.601552 C 22.681139 76.61017 22.684719 86.597935 12.673436 86.596678 Z M -0.00971976 86.601523 " transform="matrix(0.0975674,0.171279,-0.168992,0.0988878,20.311667,20.254237)"/>
<path style="fill-rule:nonzero;fill:rgb(70.588237%,56.470591%,51.764709%);fill-opacity:1;stroke-width:0.1;stroke-linecap:butt;stroke-linejoin:miter;stroke:rgb(100%,84.313726%,0%);stroke-opacity:1;stroke-miterlimit:4;" d="M 0.00971976 86.601523 C 16.340472 86.603896 16.337622 66.611029 32.685479 66.603526 C 38.206097 66.606071 42.678573 71.073974 42.676078 76.599909 C 42.673583 82.125845 38.208947 86.598938 32.671224 86.606268 C 29.910914 86.604996 27.678224 84.357438 27.684476 81.603139 C 27.68072 78.831503 29.92159 76.590019 32.681899 76.591291 C 22.680625 76.609885 22.677045 86.59765 12.692875 86.606368 Z M 0.00971976 86.601523 " transform="matrix(-0.0975674,-0.171279,-0.168992,0.0988878,20.311667,20.254237)"/>
<path style="fill-rule:nonzero;fill:rgb(90.980393%,91.764706%,86.666667%);fill-opacity:1;stroke-width:0.1;stroke-linecap:butt;stroke-linejoin:miter;stroke:rgb(100%,84.313726%,0%);stroke-opacity:1;stroke-miterlimit:4;" d="M 0.00101606 86.612259 C 16.336333 86.600102 16.343694 66.59464 32.688886 66.599588 C 38.197485 66.612092 42.670578 71.076728 42.677908 76.614451 C 42.675363 82.13507 38.20746 86.607546 32.681524 86.60505 C 29.927225 86.598798 27.685741 84.357928 27.687013 81.597619 C 27.688286 78.837309 29.908631 76.597524 32.680267 76.593767 C 22.675166 76.600196 22.676423 86.611479 12.688658 86.6079 Z M 0.00101606 86.612259 " transform="matrix(0.168992,-0.0988878,-0.0975674,-0.171279,14.126143,43.65134)"/>
<path style="fill-rule:nonzero;fill:rgb(90.980393%,91.764706%,86.666667%);fill-opacity:1;stroke-width:0.1;stroke-linecap:butt;stroke-linejoin:miter;stroke:rgb(100%,84.313726%,0%);stroke-opacity:1;stroke-miterlimit:4;" d="M 0.00101606 86.592819 C 16.336333 86.604976 16.346308 66.609523 32.674163 66.594565 C 38.200099 66.59207 42.685338 71.074555 42.678008 76.612278 C 42.680553 82.132896 38.20746 86.597533 32.681524 86.600028 C 29.927225 86.60628 27.679668 84.37359 27.678395 81.613281 C 27.686998 78.835867 29.918606 76.612101 32.672906 76.605849 C 22.685141 76.609429 22.676423 86.593599 12.688658 86.597179 Z M 0.00101606 86.592819 " transform="matrix(0.168992,-0.0988878,0.0975674,0.171279,-2.773027,13.985003)"/>
<path style="fill-rule:nonzero;fill:rgb(70.588237%,56.470591%,51.764709%);fill-opacity:1;stroke-width:0.1;stroke-linecap:butt;stroke-linejoin:miter;stroke:rgb(100%,84.313726%,0%);stroke-opacity:1;stroke-miterlimit:4;" d="M 0.000684856 -0.0045346 C 0.00629224 17.959091 8.011898 17.958122 8.000401 35.911872 C 7.993397 33.711899 6.202703 31.915245 4.010141 31.920696 C 1.790465 31.933608 0.00489605 33.722744 -0.00520517 35.912841 C -0.00120712 40.330122 3.580182 43.923431 7.999515 43.93228 C 12.428857 43.923792 15.999996 40.34552 15.995998 35.928239 C 15.99039 17.964613 0.00629224 17.959091 0.000684856 -0.0045346 " transform="matrix(0.0975674,0.171279,-0.168992,0.0988878,20.311667,20.254237)"/>
<path style="fill-rule:nonzero;fill:rgb(70.588237%,56.470591%,51.764709%);fill-opacity:1;stroke-width:0.1;stroke-linecap:butt;stroke-linejoin:miter;stroke:rgb(100%,84.313726%,0%);stroke-opacity:1;stroke-miterlimit:4;" d="M -0.000684856 -0.0045346 C -0.00629224 17.959091 7.999314 17.96006 7.993706 35.923686 C 8.00071 33.723713 6.205131 31.917241 3.995465 31.921665 C 1.785799 31.926089 -0.00489605 33.722744 0.00520517 35.912841 C 0.00120712 40.330122 3.582355 43.925731 8.001688 43.916882 C 12.413925 43.935246 15.995314 40.341937 15.999312 35.924655 C 16.00492 17.96103 -0.00629224 17.959091 -0.000684856 -0.0045346 " transform="matrix(-0.0975674,-0.171279,-0.168992,0.0988878,20.311667,20.254237)"/>
<path style="fill-rule:nonzero;fill:rgb(70.588237%,56.470591%,51.764709%);fill-opacity:1;stroke-width:0.1;stroke-linecap:butt;stroke-linejoin:miter;stroke:rgb(100%,84.313726%,0%);stroke-opacity:1;stroke-miterlimit:4;" d="M 0.00681996 86.603197 C 16.337572 86.60557 16.334723 66.612703 32.682579 66.6052 C 38.203197 66.607745 42.675673 71.075648 42.673178 76.601584 C 42.670683 82.127519 38.206047 86.600612 32.685429 86.598067 C 29.925119 86.596794 27.675325 84.359113 27.681577 81.604813 C 27.67782 78.833177 29.91869 76.591693 32.678999 76.592965 C 22.677725 76.611559 22.674145 86.599324 12.689975 86.608042 Z M 0.00681996 86.603197 " transform="matrix(-0.0975674,0.171279,-0.168992,-0.0988878,20.311667,20.254237)"/>
<path style="fill-rule:nonzero;fill:rgb(70.588237%,56.470591%,51.764709%);fill-opacity:1;stroke-width:0.1;stroke-linecap:butt;stroke-linejoin:miter;stroke:rgb(100%,84.313726%,0%);stroke-opacity:1;stroke-miterlimit:4;" d="M -0.00681996 86.603197 C 16.341037 86.6107 16.33679 66.590622 32.684647 66.598124 C 38.205265 66.595579 42.687006 71.078547 42.689501 76.604483 C 42.674892 82.120543 38.192407 86.605782 32.671789 86.608328 C 29.91148 86.6096 27.670609 84.368116 27.674366 81.59648 C 27.668114 78.84218 29.917909 76.604499 32.678218 76.603226 C 22.684039 76.611844 22.687619 86.59961 12.676335 86.598352 Z M -0.00681996 86.603197 " transform="matrix(0.0975674,-0.171279,-0.168992,-0.0988878,20.311667,20.254237)"/>
<path style="fill-rule:nonzero;fill:rgb(90.980393%,91.764706%,86.666667%);fill-opacity:1;stroke-width:0.1;stroke-linecap:butt;stroke-linejoin:miter;stroke:rgb(100%,84.313726%,0%);stroke-opacity:1;stroke-miterlimit:4;" d="M -0.000658141 86.595719 C 16.334658 86.607876 16.344633 66.612422 32.672489 66.597465 C 38.198425 66.59497 42.683664 71.077455 42.686209 76.598073 C 42.678879 82.135796 38.205786 86.600432 32.67985 86.602928 C 29.92555 86.60918 27.687869 84.359385 27.686596 81.599076 C 27.685324 78.838767 29.926808 76.597896 32.671232 76.608749 C 22.683467 76.612329 22.674749 86.596498 12.686983 86.600078 Z M -0.000658141 86.595719 " transform="matrix(0.168992,0.0988878,0.0975674,-0.171279,-2.773027,26.523472)"/>
<path style="fill-rule:nonzero;fill:rgb(90.980393%,91.764706%,86.666667%);fill-opacity:1;stroke-width:0.1;stroke-linecap:butt;stroke-linejoin:miter;stroke:rgb(100%,84.313726%,0%);stroke-opacity:1;stroke-miterlimit:4;" d="M -0.000658141 86.609359 C 16.334658 86.597202 16.34202 66.59174 32.687211 66.596688 C 38.195811 66.609192 42.678779 71.090933 42.676234 76.611552 C 42.673689 82.13217 38.205786 86.604646 32.67985 86.60215 C 29.92555 86.595898 27.684066 84.355028 27.685339 81.594719 C 27.686612 78.83441 29.916833 76.611729 32.688469 76.607972 C 22.673492 76.597296 22.674749 86.60858 12.686983 86.605 Z M -0.000658141 86.609359 " transform="matrix(0.168992,0.0988878,-0.0975674,0.171279,14.126143,-3.142865)"/>
<path style="fill-rule:nonzero;fill:rgb(70.588237%,56.470591%,51.764709%);fill-opacity:1;stroke-width:0.1;stroke-linecap:butt;stroke-linejoin:miter;stroke:rgb(100%,84.313726%,0%);stroke-opacity:1;stroke-miterlimit:4;" d="M -0.00358465 -0.0028604 C -0.00919204 17.960765 7.996414 17.961735 7.990806 35.92536 C 7.99781 33.725388 6.202232 31.918915 3.992565 31.923339 C 1.782899 31.927764 0.00930895 33.714543 0.00230537 35.914515 C -0.00169267 40.331797 3.579455 43.927405 7.998788 43.918557 C 12.42813 43.927044 15.992414 40.343611 15.996412 35.926329 C 16.00202 17.962704 -0.00919204 17.960765 -0.00358465 -0.0028604 " transform="matrix(-0.0975674,0.171279,-0.168992,-0.0988878,20.311667,20.254237)"/>
<path style="fill-rule:nonzero;fill:rgb(70.588237%,56.470591%,51.764709%);fill-opacity:1;stroke-width:0.1;stroke-linecap:butt;stroke-linejoin:miter;stroke:rgb(100%,84.313726%,0%);stroke-opacity:1;stroke-miterlimit:4;" d="M 0.00358465 -0.0028604 C 0.00919204 17.960765 7.997693 17.94992 8.003301 35.913546 C 7.996297 33.713573 6.205602 31.916919 3.995936 31.912495 C 1.793365 31.935282 -0.00930895 33.714543 -0.00230537 35.914515 C 0.00169267 40.331797 3.583082 43.925106 8.002415 43.933954 C 12.414652 43.915591 16.002895 40.347194 15.998897 35.929913 C 15.99329 17.966287 0.00919204 17.960765 0.00358465 -0.0028604 " transform="matrix(0.0975674,-0.171279,-0.168992,-0.0988878,20.311667,20.254237)"/>
<path style="fill-rule:nonzero;fill:rgb(70.588237%,56.470591%,51.764709%);fill-opacity:1;stroke-width:0.1;stroke-linecap:butt;stroke-linejoin:miter;stroke:rgb(100%,84.313726%,0%);stroke-opacity:1;stroke-miterlimit:4;" d="M -0.00426951 86.609467 C 16.330593 86.609467 16.330593 66.601783 32.685473 66.601783 C 38.2105 66.601783 42.674562 71.085242 42.674562 76.595749 C 42.674562 82.126007 38.2105 86.609467 32.685473 86.609467 C 29.92296 86.609467 27.68092 84.357862 27.68092 81.592732 C 27.68092 78.847354 29.92296 76.595749 32.685473 76.595749 C 22.676366 76.595749 22.676366 86.609467 12.687278 86.609467 Z M -0.00426951 86.609467 " transform="matrix(-0.195135,0,0,-0.197776,20.311667,20.254237)"/>
<path style="fill-rule:nonzero;fill:rgb(70.588237%,56.470591%,51.764709%);fill-opacity:1;stroke-width:0.1;stroke-linecap:butt;stroke-linejoin:miter;stroke:rgb(100%,84.313726%,0%);stroke-opacity:1;stroke-miterlimit:4;" d="M 0.00426951 86.609467 C 16.339132 86.609467 16.339132 66.601783 32.673994 66.601783 C 38.199021 66.601783 42.683101 71.085242 42.683101 76.595749 C 42.683101 82.126007 38.199021 86.609467 32.673994 86.609467 C 29.911481 86.609467 27.689459 84.357862 27.689459 81.592732 C 27.689459 78.847354 29.911481 76.595749 32.673994 76.595749 C 22.684906 76.595749 22.684906 86.609467 12.675799 86.609467 Z M 0.00426951 86.609467 " transform="matrix(0.195135,0,0,-0.197776,20.311667,20.254237)"/>
<path style="fill-rule:nonzero;fill:rgb(90.980393%,91.764706%,86.666667%);fill-opacity:1;stroke-width:0.1;stroke-linecap:butt;stroke-linejoin:miter;stroke:rgb(100%,84.313726%,0%);stroke-opacity:1;stroke-miterlimit:4;" d="M -0.00692756 86.606809 C 16.346836 86.606809 16.346836 66.608613 32.680848 66.608613 C 38.211106 66.608613 42.674815 71.072675 42.674815 76.597702 C 42.674815 82.122729 38.211106 86.606809 32.680848 86.606809 C 29.915719 86.606809 27.683865 84.364769 27.683865 81.602255 C 27.683865 78.839742 29.915719 76.597702 32.680848 76.597702 C 22.686882 76.597702 22.686882 86.606809 12.673164 86.606809 Z M -0.00692756 86.606809 " transform="matrix(0,0.197776,0.195135,0,3.412498,3.12637)"/>
<path style="fill-rule:nonzero;fill:rgb(90.980393%,91.764706%,86.666667%);fill-opacity:1;stroke-width:0.1;stroke-linecap:butt;stroke-linejoin:miter;stroke:rgb(100%,84.313726%,0%);stroke-opacity:1;stroke-miterlimit:4;" d="M -0.00692756 86.59827 C 16.346836 86.59827 16.346836 66.600074 32.680848 66.600074 C 38.211106 66.600074 42.674815 71.084154 42.674815 76.609181 C 42.674815 82.134208 38.211106 86.59827 32.680848 86.59827 C 29.915719 86.59827 27.683865 84.35623 27.683865 81.593716 C 27.683865 78.831203 29.915719 76.609181 32.680848 76.609181 C 22.686882 76.609181 22.686882 86.59827 12.673164 86.59827 Z M -0.00692756 86.59827 " transform="matrix(-0.000000000000000012,0.197776,-0.195135,-0.000000000000000012,37.210836,3.12637)"/>
<path style="fill-rule:nonzero;fill:rgb(70.588237%,56.470591%,51.764709%);fill-opacity:1;stroke-width:0.1;stroke-linecap:butt;stroke-linejoin:miter;stroke:rgb(100%,84.313726%,0%);stroke-opacity:1;stroke-miterlimit:4;" d="M -0.00426951 0.0016742 C -0.00426951 17.955262 8.003016 17.955262 8.003016 35.928601 C 8.003016 33.716498 6.201377 31.919164 3.999373 31.919164 C 1.79737 31.919164 -0.00426951 33.716498 -0.00426951 35.928601 C -0.00426951 40.333057 3.578991 43.927724 8.003016 43.927724 C 12.427041 43.927724 15.990283 40.333057 15.990283 35.928601 C 15.990283 17.955262 -0.00426951 17.955262 -0.00426951 0.0016742 " transform="matrix(-0.195135,0,0,-0.197776,20.311667,20.254237)"/>
<path style="fill-rule:nonzero;fill:rgb(70.588237%,56.470591%,51.764709%);fill-opacity:1;stroke-width:0.1;stroke-linecap:butt;stroke-linejoin:miter;stroke:rgb(100%,84.313726%,0%);stroke-opacity:1;stroke-miterlimit:4;" d="M 0.00426951 0.0016742 C 0.00426951 17.955262 7.991537 17.955262 7.991537 35.928601 C 7.991537 33.716498 6.209916 31.919164 4.007912 31.919164 C 1.785891 31.919164 0.00426951 33.716498 0.00426951 35.928601 C 0.00426951 40.333057 3.58753 43.927724 7.991537 43.927724 C 12.415562 43.927724 15.998822 40.333057 15.998822 35.928601 C 15.998822 17.955262 0.00426951 17.955262 0.00426951 0.0016742 " transform="matrix(0.195135,0,0,-0.197776,20.311667,20.254237)"/>
<path style="fill-rule:nonzero;fill:rgb(70.588237%,56.470591%,51.764709%);fill-opacity:1;stroke-width:0.1;stroke-linecap:butt;stroke-linejoin:miter;stroke:rgb(100%,84.313726%,0%);stroke-opacity:1;stroke-miterlimit:4;" d="M -0.00108036 86.593256 C 16.346776 86.600759 16.332521 66.598017 32.680378 66.605519 C 38.200996 66.602974 42.682737 71.085942 42.685232 76.611878 C 42.670622 82.127938 38.198146 86.595841 32.677528 86.598386 C 29.917219 86.599659 27.676349 84.358175 27.670096 81.603875 C 27.673853 78.832239 29.923648 76.594557 32.673948 76.610621 C 22.689779 76.601903 22.683349 86.607005 12.672066 86.605747 Z M -0.00108036 86.593256 " transform="matrix(-0.0975674,-0.171279,0.168992,-0.0988878,20.311667,20.254237)"/>
<path style="fill-rule:nonzero;fill:rgb(70.588237%,56.470591%,51.764709%);fill-opacity:1;stroke-width:0.1;stroke-linecap:butt;stroke-linejoin:miter;stroke:rgb(100%,84.313726%,0%);stroke-opacity:1;stroke-miterlimit:4;" d="M 0.00108036 86.593256 C 16.331832 86.595628 16.328983 66.602762 32.67684 66.595259 C 38.197458 66.597804 42.679943 71.083043 42.677448 76.608979 C 42.674952 82.134914 38.210316 86.608007 32.689698 86.605462 C 29.929389 86.604189 27.679594 84.366508 27.675837 81.594872 C 27.682089 78.840572 29.92296 76.599088 32.683269 76.60036 C 22.671985 76.601617 22.678414 86.606719 12.684236 86.598101 Z M 0.00108036 86.593256 " transform="matrix(0.0975674,0.171279,0.168992,-0.0988878,20.311667,20.254237)"/>
<path style="fill-rule:nonzero;fill:rgb(90.980393%,91.764706%,86.666667%);fill-opacity:1;stroke-width:0.1;stroke-linecap:butt;stroke-linejoin:miter;stroke:rgb(100%,84.313726%,0%);stroke-opacity:1;stroke-miterlimit:4;" d="M 0.00928313 86.603619 C 16.3446 86.591463 16.334625 66.596009 32.679816 66.600958 C 38.205752 66.603453 42.68872 71.085194 42.686175 76.605812 C 42.68363 82.12643 38.198391 86.608915 32.672455 86.60642 C 29.918155 86.600168 27.676671 84.359297 27.677944 81.598988 C 27.679217 78.838679 29.926774 76.605989 32.681074 76.612241 C 22.683433 76.591556 22.68469 86.60284 12.679588 86.609269 Z M 0.00928313 86.603619 " transform="matrix(-0.168992,0.0988878,0.0975674,0.171279,26.497191,-3.142865)"/>
<path style="fill-rule:nonzero;fill:rgb(90.980393%,91.764706%,86.666667%);fill-opacity:1;stroke-width:0.1;stroke-linecap:butt;stroke-linejoin:miter;stroke:rgb(100%,84.313726%,0%);stroke-opacity:1;stroke-miterlimit:4;" d="M 0.00928313 86.601459 C 16.3446 86.613615 16.337238 66.608153 32.68243 66.603205 C 38.208366 66.60071 42.676269 71.073186 42.678814 76.593804 C 42.671484 82.131527 38.198391 86.596163 32.672455 86.598658 C 29.918155 86.60491 27.680474 84.355115 27.679201 81.594806 C 27.677929 78.834497 29.919413 76.593627 32.681173 76.614488 C 22.676072 76.608059 22.68469 86.602238 12.679588 86.595809 Z M 0.00928313 86.601459 " transform="matrix(-0.168992,0.0988878,-0.0975674,-0.171279,43.396361,26.523472)"/>
<path style="fill-rule:nonzero;fill:rgb(70.588237%,56.470591%,51.764709%);fill-opacity:1;stroke-width:0.1;stroke-linecap:butt;stroke-linejoin:miter;stroke:rgb(100%,84.313726%,0%);stroke-opacity:1;stroke-miterlimit:4;" d="M -0.000684856 0.0045346 C 0.00492253 17.96816 7.993424 17.957315 7.999031 35.920941 C 8.002037 33.703632 6.201333 31.924314 3.991666 31.91989 C 1.799105 31.925341 -0.00356935 33.704601 -0.00657488 35.92191 C -0.00257684 40.339192 3.578812 43.932501 8.008154 43.924013 C 12.410382 43.922986 16.008635 40.337253 16.004637 35.919971 C 15.99903 17.956346 0.00492253 17.96816 -0.000684856 0.0045346 " transform="matrix(-0.0975674,-0.171279,0.168992,-0.0988878,20.311667,20.254237)"/>
<path style="fill-rule:nonzero;fill:rgb(70.588237%,56.470591%,51.764709%);fill-opacity:1;stroke-width:0.1;stroke-linecap:butt;stroke-linejoin:miter;stroke:rgb(100%,84.313726%,0%);stroke-opacity:1;stroke-miterlimit:4;" d="M 0.000684856 0.0045346 C -0.00492253 17.96816 8.000683 17.96913 7.995076 35.932755 C 7.99207 33.715446 6.206501 31.92631 3.996835 31.930734 C 1.787168 31.935159 0.00356935 33.704601 0.00657488 35.92191 C 0.00257684 40.339192 3.573716 43.917464 8.003058 43.925952 C 12.42239 43.917103 15.996684 40.351006 16.000682 35.933724 C 15.99628 17.952763 -0.00492253 17.96816 0.000684856 0.0045346 " transform="matrix(0.0975674,0.171279,0.168992,-0.0988878,20.311667,20.254237)"/>
<path style="fill-rule:nonzero;fill:rgb(70.588237%,56.470591%,51.764709%);fill-opacity:1;stroke-width:0.1;stroke-linecap:butt;stroke-linejoin:miter;stroke:rgb(100%,84.313726%,0%);stroke-opacity:1;stroke-miterlimit:4;" d="M 0.00398016 86.591582 C 16.334732 86.593954 16.331883 66.601087 32.679739 66.593585 C 38.200358 66.59613 42.682843 71.081369 42.680347 76.607304 C 42.677852 82.13324 38.213216 86.606333 32.675493 86.613663 C 29.915184 86.612391 27.682494 84.364833 27.678737 81.593197 C 27.684989 78.838898 29.92586 76.597414 32.686169 76.598686 C 22.674885 76.599943 22.681314 86.605045 12.687135 86.596426 Z M 0.00398016 86.591582 " transform="matrix(0.0975674,-0.171279,0.168992,0.0988878,20.311667,20.254237)"/>
<path style="fill-rule:nonzero;fill:rgb(70.588237%,56.470591%,51.764709%);fill-opacity:1;stroke-width:0.1;stroke-linecap:butt;stroke-linejoin:miter;stroke:rgb(100%,84.313726%,0%);stroke-opacity:1;stroke-miterlimit:4;" d="M -0.00398016 86.591582 C 16.343877 86.599085 16.346726 66.606218 32.677478 66.603845 C 38.198096 66.6013 42.679837 71.084268 42.682332 76.610204 C 42.667723 82.126264 38.212351 86.604042 32.674628 86.596712 C 29.914319 86.597985 27.673449 84.356501 27.684301 81.612076 C 27.688058 78.84044 29.920749 76.592883 32.671049 76.608947 C 22.686879 76.600229 22.68045 86.60533 12.669166 86.604073 Z M -0.00398016 86.591582 " transform="matrix(-0.0975674,0.171279,0.168992,0.0988878,20.311667,20.254237)"/>
<path style="fill-rule:nonzero;fill:rgb(90.980393%,91.764706%,86.666667%);fill-opacity:1;stroke-width:0.1;stroke-linecap:butt;stroke-linejoin:miter;stroke:rgb(100%,84.313726%,0%);stroke-opacity:1;stroke-miterlimit:4;" d="M 0.0109573 86.598559 C 16.346274 86.610716 16.338913 66.605253 32.684105 66.600305 C 38.21004 66.59781 42.677943 71.070286 42.670613 76.608009 C 42.673158 82.128627 38.200065 86.593263 32.674129 86.595758 C 29.91983 86.602011 27.672273 84.36932 27.671 81.609011 C 27.679603 78.831597 29.911211 76.607832 32.682847 76.611589 C 22.677746 76.605159 22.686364 86.599338 12.681263 86.592909 Z M 0.0109573 86.598559 " transform="matrix(-0.168992,-0.0988878,-0.0975674,0.171279,43.396361,13.985003)"/>
<path style="fill-rule:nonzero;fill:rgb(90.980393%,91.764706%,86.666667%);fill-opacity:1;stroke-width:0.1;stroke-linecap:butt;stroke-linejoin:miter;stroke:rgb(100%,84.313726%,0%);stroke-opacity:1;stroke-miterlimit:4;" d="M 0.0109573 86.606519 C 16.346274 86.594363 16.336299 66.598909 32.681491 66.603857 C 38.207426 66.606353 42.680519 71.070989 42.687849 76.608712 C 42.685304 82.12933 38.200065 86.611815 32.674129 86.60932 C 29.91983 86.603068 27.678346 84.362197 27.679618 81.601888 C 27.680891 78.841579 29.918573 76.591784 32.672872 76.598036 C 22.685107 76.594456 22.686364 86.60574 12.681263 86.612169 Z M 0.0109573 86.606519 " transform="matrix(-0.168992,-0.0988878,0.0975674,-0.171279,26.497191,43.65134)"/>
<path style="fill-rule:nonzero;fill:rgb(70.588237%,56.470591%,51.764709%);fill-opacity:1;stroke-width:0.1;stroke-linecap:butt;stroke-linejoin:miter;stroke:rgb(100%,84.313726%,0%);stroke-opacity:1;stroke-miterlimit:4;" d="M 0.00358465 0.0028604 C -0.00202273 17.966486 8.003583 17.967455 7.997976 35.931081 C 7.99497 33.713772 6.209401 31.924636 3.999734 31.92906 C 1.790068 31.933484 -0.0106356 33.712803 0.00947468 35.920236 C 0.00547663 40.337517 3.576616 43.91579 8.005957 43.924277 C 12.408185 43.925304 15.999584 40.349332 16.003582 35.93205 C 15.99918 17.951088 -0.00202273 17.966486 0.00358465 0.0028604 " transform="matrix(0.0975674,-0.171279,0.168992,0.0988878,20.311667,20.254237)"/>
<path style="fill-rule:nonzero;fill:rgb(70.588237%,56.470591%,51.764709%);fill-opacity:1;stroke-width:0.1;stroke-linecap:butt;stroke-linejoin:miter;stroke:rgb(100%,84.313726%,0%);stroke-opacity:1;stroke-miterlimit:4;" d="M -0.00358465 0.0028604 C 0.00202273 17.966486 8.007629 17.965517 7.996131 35.919267 C 7.999137 33.701958 6.198433 31.92264 4.005871 31.928091 C 1.796205 31.923667 0.0106356 33.712803 -0.00947468 35.920236 C -0.00547663 40.337517 3.575912 43.930826 8.005254 43.922339 C 12.424587 43.931187 16.005735 40.335579 16.001737 35.918297 C 15.99613 17.954672 0.00202273 17.966486 -0.00358465 0.0028604 " transform="matrix(-0.0975674,0.171279,0.168992,0.0988878,20.311667,20.254237)"/>
</g>
</svg>
