<svg xmlns="http://www.w3.org/2000/svg" width="400" height="369.2307692307692"><rect width="100%" height="100%" fill="#333"/><g transform="translate(200, 184.6153846153846)"><g><path d="M 0 0 A100 100 0 0 1 100 -100 A100 100 0 0 1 0 0" fill="#F7F0F5"/><path d="M 100 -100 A62.5 62.5 0 0 1 162.5 -37.5 A62.5 62.5 0 0 1 100 -100" fill="#F7F0F5"/><path d="M 162.5 -37.5 A37.5 37.5 0 0 1 125 0 A37.5 37.5 0 0 1 162.5 -37.5" fill="#F7F0F5"/><path d="M 125 0 A25 25 0 0 1 100 -25 A25 25 0 0 1 125 0" fill="#F7F0F5"/><path d="M 100 -25  A12.5 12.5 0 0 1 112.5 -37.5 A12.5 12.5 0 0 1 100 -25 " fill="#F7F0F5"/><path d="M 112.5 -37.5  A12.5 12.5 0 0 1 125 -25 A12.5 12.5 0 0 1 112.5 -37.5 " fill="#F7F0F5"/></g><g><circle cx="14.285714285714286" cy="-14.285714285714286" r="6.666666666666667" fill="#333"/><circle cx="85.71428571428571" cy="-85.71428571428571" r="6.666666666666667" fill="#333"/><circle cx="108.92857142857143" cy="-91.07142857142857" r="4.166666666666667" fill="#333"/><circle cx="153.57142857142856" cy="-46.42857142857143" r="4.166666666666667" fill="#333"/><circle cx="157.14285714285714" cy="-32.142857142857146" r="2.5" fill="#333"/><circle cx="130.35714285714286" cy="-5.357142857142854" r="2.5" fill="#333"/><circle cx="121.42857142857143" cy="-3.5714285714285716" r="1.6666666666666667" fill="#333"/><circle cx="103.57142857142857" cy="-21.428571428571427" r="1.6666666666666667" fill="#333"/><circle cx="101.78571428571429" cy="-26.785714285714285" r="0.8333333333333334" fill="#333"/><circle cx="110.71428571428571" cy="-35.714285714285715" r="0.8333333333333334" fill="#333"/><circle cx="114.28571428571429" cy="-35.714285714285715" r="0.8333333333333334" fill="#333"/><circle cx="123.21428571428571" cy="-26.785714285714285" r="0.8333333333333334" fill="#333"/></g><g transform="scale(1,-1)"><path d="M 0 0 A100 100 0 0 1 100 -100 A100 100 0 0 1 0 0" fill="#F7F0F5"/><path d="M 100 -100 A62.5 62.5 0 0 1 162.5 -37.5 A62.5 62.5 0 0 1 100 -100" fill="#F7F0F5"/><path d="M 162.5 -37.5 A37.5 37.5 0 0 1 125 0 A37.5 37.5 0 0 1 162.5 -37.5" fill="#F7F0F5"/><path d="M 125 0 A25 25 0 0 1 100 -25 A25 25 0 0 1 125 0" fill="#F7F0F5"/><path d="M 100 -25  A12.5 12.5 0 0 1 112.5 -37.5 A12.5 12.5 0 0 1 100 -25 " fill="#F7F0F5"/><path d="M 112.5 -37.5  A12.5 12.5 0 0 1 125 -25 A12.5 12.5 0 0 1 112.5 -37.5 " fill="#F7F0F5"/></g><g transform="scale(1,-1)"><circle cx="14.285714285714286" cy="-14.285714285714286" r="6.666666666666667" fill="#333"/><circle cx="85.71428571428571" cy="-85.71428571428571" r="6.666666666666667" fill="#333"/><circle cx="108.92857142857143" cy="-91.07142857142857" r="4.166666666666667" fill="#333"/><circle cx="153.57142857142856" cy="-46.42857142857143" r="4.166666666666667" fill="#333"/><circle cx="157.14285714285714" cy="-32.142857142857146" r="2.5" fill="#333"/><circle cx="130.35714285714286" cy="-5.357142857142854" r="2.5" fill="#333"/><circle cx="121.42857142857143" cy="-3.5714285714285716" r="1.6666666666666667" fill="#333"/><circle cx="103.57142857142857" cy="-21.428571428571427" r="1.6666666666666667" fill="#333"/><circle cx="101.78571428571429" cy="-26.785714285714285" r="0.8333333333333334" fill="#333"/><circle cx="110.71428571428571" cy="-35.714285714285715" r="0.8333333333333334" fill="#333"/><circle cx="114.28571428571429" cy="-35.714285714285715" r="0.8333333333333334" fill="#333"/><circle cx="123.21428571428571" cy="-26.785714285714285" r="0.8333333333333334" fill="#333"/></g><g transform="scale(-1,1)"><path d="M 0 0 A100 100 0 0 1 100 -100 A100 100 0 0 1 0 0" fill="#F7F0F5"/><path d="M 100 -100 A62.5 62.5 0 0 1 162.5 -37.5 A62.5 62.5 0 0 1 100 -100" fill="#F7F0F5"/><path d="M 162.5 -37.5 A37.5 37.5 0 0 1 125 0 A37.5 37.5 0 0 1 162.5 -37.5" fill="#F7F0F5"/><path d="M 125 0 A25 25 0 0 1 100 -25 A25 25 0 0 1 125 0" fill="#F7F0F5"/><path d="M 100 -25  A12.5 12.5 0 0 1 112.5 -37.5 A12.5 12.5 0 0 1 100 -25 " fill="#F7F0F5"/><path d="M 112.5 -37.5  A12.5 12.5 0 0 1 125 -25 A12.5 12.5 0 0 1 112.5 -37.5 " fill="#F7F0F5"/></g><g transform="scale(-1,1)"><circle cx="14.285714285714286" cy="-14.285714285714286" r="6.666666666666667" fill="#333"/><circle cx="85.71428571428571" cy="-85.71428571428571" r="6.666666666666667" fill="#333"/><circle cx="108.92857142857143" cy="-91.07142857142857" r="4.166666666666667" fill="#333"/><circle cx="153.57142857142856" cy="-46.42857142857143" r="4.166666666666667" fill="#333"/><circle cx="157.14285714285714" cy="-32.142857142857146" r="2.5" fill="#333"/><circle cx="130.35714285714286" cy="-5.357142857142854" r="2.5" fill="#333"/><circle cx="121.42857142857143" cy="-3.5714285714285716" r="1.6666666666666667" fill="#333"/><circle cx="103.57142857142857" cy="-21.428571428571427" r="1.6666666666666667" fill="#333"/><circle cx="101.78571428571429" cy="-26.785714285714285" r="0.8333333333333334" fill="#333"/><circle cx="110.71428571428571" cy="-35.714285714285715" r="0.8333333333333334" fill="#333"/><circle cx="114.28571428571429" cy="-35.714285714285715" r="0.8333333333333334" fill="#333"/><circle cx="123.21428571428571" cy="-26.785714285714285" r="0.8333333333333334" fill="#333"/></g><g transform="scale(-1,-1)"><path d="M 0 0 A100 100 0 0 1 100 -100 A100 100 0 0 1 0 0" fill="#F7F0F5"/><path d="M 100 -100 A62.5 62.5 0 0 1 162.5 -37.5 A62.5 62.5 0 0 1 100 -100" fill="#F7F0F5"/><path d="M 162.5 -37.5 A37.5 37.5 0 0 1 125 0 A37.5 37.5 0 0 1 162.5 -37.5" fill="#F7F0F5"/><path d="M 125 0 A25 25 0 0 1 100 -25 A25 25 0 0 1 125 0" fill="#F7F0F5"/><path d="M 100 -25  A12.5 12.5 0 0 1 112.5 -37.5 A12.5 12.5 0 0 1 100 -25 " fill="#F7F0F5"/><path d="M 112.5 -37.5  A12.5 12.5 0 0 1 125 -25 A12.5 12.5 0 0 1 112.5 -37.5 " fill="#F7F0F5"/></g><g transform="scale(-1,-1)"><circle cx="14.285714285714286" cy="-14.285714285714286" r="6.666666666666667" fill="#333"/><circle cx="85.71428571428571" cy="-85.71428571428571" r="6.666666666666667" fill="#333"/><circle cx="108.92857142857143" cy="-91.07142857142857" r="4.166666666666667" fill="#333"/><circle cx="153.57142857142856" cy="-46.42857142857143" r="4.166666666666667" fill="#333"/><circle cx="157.14285714285714" cy="-32.142857142857146" r="2.5" fill="#333"/><circle cx="130.35714285714286" cy="-5.357142857142854" r="2.5" fill="#333"/><circle cx="121.42857142857143" cy="-3.5714285714285716" r="1.6666666666666667" fill="#333"/><circle cx="103.57142857142857" cy="-21.428571428571427" r="1.6666666666666667" fill="#333"/><circle cx="101.78571428571429" cy="-26.785714285714285" r="0.8333333333333334" fill="#333"/><circle cx="110.71428571428571" cy="-35.714285714285715" r="0.8333333333333334" fill="#333"/><circle cx="114.28571428571429" cy="-35.714285714285715" r="0.8333333333333334" fill="#333"/><circle cx="123.21428571428571" cy="-26.785714285714285" r="0.8333333333333334" fill="#333"/></g><g transform="rotate(-90)"><path d="M 0 0 A100 100 0 0 1 100 -100 A100 100 0 0 1 0 0" fill="#F7F0F5"/><path d="M 100 -100 A62.5 62.5 0 0 1 162.5 -37.5 A62.5 62.5 0 0 1 100 -100" fill="#F7F0F5"/><path d="M 162.5 -37.5 A37.5 37.5 0 0 1 125 0 A37.5 37.5 0 0 1 162.5 -37.5" fill="#F7F0F5"/><path d="M 125 0 A25 25 0 0 1 100 -25 A25 25 0 0 1 125 0" fill="#F7F0F5"/><path d="M 100 -25  A12.5 12.5 0 0 1 112.5 -37.5 A12.5 12.5 0 0 1 100 -25 " fill="#F7F0F5"/><path d="M 112.5 -37.5  A12.5 12.5 0 0 1 125 -25 A12.5 12.5 0 0 1 112.5 -37.5 " fill="#F7F0F5"/></g><g transform="rotate(-90)"><circle cx="14.285714285714286" cy="-14.285714285714286" r="6.666666666666667" fill="#333"/><circle cx="85.71428571428571" cy="-85.71428571428571" r="6.666666666666667" fill="#333"/><circle cx="108.92857142857143" cy="-91.07142857142857" r="4.166666666666667" fill="#333"/><circle cx="153.57142857142856" cy="-46.42857142857143" r="4.166666666666667" fill="#333"/><circle cx="157.14285714285714" cy="-32.142857142857146" r="2.5" fill="#333"/><circle cx="130.35714285714286" cy="-5.357142857142854" r="2.5" fill="#333"/><circle cx="121.42857142857143" cy="-3.5714285714285716" r="1.6666666666666667" fill="#333"/><circle cx="103.57142857142857" cy="-21.428571428571427" r="1.6666666666666667" fill="#333"/><circle cx="101.78571428571429" cy="-26.785714285714285" r="0.8333333333333334" fill="#333"/><circle cx="110.71428571428571" cy="-35.714285714285715" r="0.8333333333333334" fill="#333"/><circle cx="114.28571428571429" cy="-35.714285714285715" r="0.8333333333333334" fill="#333"/><circle cx="123.21428571428571" cy="-26.785714285714285" r="0.8333333333333334" fill="#333"/></g><g transform="scale(-1,1) rotate(-90)"><path d="M 0 0 A100 100 0 0 1 100 -100 A100 100 0 0 1 0 0" fill="#F7F0F5"/><path d="M 100 -100 A62.5 62.5 0 0 1 162.5 -37.5 A62.5 62.5 0 0 1 100 -100" fill="#F7F0F5"/><path d="M 162.5 -37.5 A37.5 37.5 0 0 1 125 0 A37.5 37.5 0 0 1 162.5 -37.5" fill="#F7F0F5"/><path d="M 125 0 A25 25 0 0 1 100 -25 A25 25 0 0 1 125 0" fill="#F7F0F5"/><path d="M 100 -25  A12.5 12.5 0 0 1 112.5 -37.5 A12.5 12.5 0 0 1 100 -25 " fill="#F7F0F5"/><path d="M 112.5 -37.5  A12.5 12.5 0 0 1 125 -25 A12.5 12.5 0 0 1 112.5 -37.5 " fill="#F7F0F5"/></g><g transform="scale(-1,1) rotate(-90)"><circle cx="14.285714285714286" cy="-14.285714285714286" r="6.666666666666667" fill="#333"/><circle cx="85.71428571428571" cy="-85.71428571428571" r="6.666666666666667" fill="#333"/><circle cx="108.92857142857143" cy="-91.07142857142857" r="4.166666666666667" fill="#333"/><circle cx="153.57142857142856" cy="-46.42857142857143" r="4.166666666666667" fill="#333"/><circle cx="157.14285714285714" cy="-32.142857142857146" r="2.5" fill="#333"/><circle cx="130.35714285714286" cy="-5.357142857142854" r="2.5" fill="#333"/><circle cx="121.42857142857143" cy="-3.5714285714285716" r="1.6666666666666667" fill="#333"/><circle cx="103.57142857142857" cy="-21.428571428571427" r="1.6666666666666667" fill="#333"/><circle cx="101.78571428571429" cy="-26.785714285714285" r="0.8333333333333334" fill="#333"/><circle cx="110.71428571428571" cy="-35.714285714285715" r="0.8333333333333334" fill="#333"/><circle cx="114.28571428571429" cy="-35.714285714285715" r="0.8333333333333334" fill="#333"/><circle cx="123.21428571428571" cy="-26.785714285714285" r="0.8333333333333334" fill="#333"/></g><g transform="scale(-1,1) rotate(90)"><path d="M 0 0 A100 100 0 0 1 100 -100 A100 100 0 0 1 0 0" fill="#F7F0F5"/><path d="M 100 -100 A62.5 62.5 0 0 1 162.5 -37.5 A62.5 62.5 0 0 1 100 -100" fill="#F7F0F5"/><path d="M 162.5 -37.5 A37.5 37.5 0 0 1 125 0 A37.5 37.5 0 0 1 162.5 -37.5" fill="#F7F0F5"/><path d="M 125 0 A25 25 0 0 1 100 -25 A25 25 0 0 1 125 0" fill="#F7F0F5"/><path d="M 100 -25  A12.5 12.5 0 0 1 112.5 -37.5 A12.5 12.5 0 0 1 100 -25 " fill="#F7F0F5"/><path d="M 112.5 -37.5  A12.5 12.5 0 0 1 125 -25 A12.5 12.5 0 0 1 112.5 -37.5 " fill="#F7F0F5"/></g><g transform="scale(-1,1) rotate(90)"><circle cx="14.285714285714286" cy="-14.285714285714286" r="6.666666666666667" fill="#333"/><circle cx="85.71428571428571" cy="-85.71428571428571" r="6.666666666666667" fill="#333"/><circle cx="108.92857142857143" cy="-91.07142857142857" r="4.166666666666667" fill="#333"/><circle cx="153.57142857142856" cy="-46.42857142857143" r="4.166666666666667" fill="#333"/><circle cx="157.14285714285714" cy="-32.142857142857146" r="2.5" fill="#333"/><circle cx="130.35714285714286" cy="-5.357142857142854" r="2.5" fill="#333"/><circle cx="121.42857142857143" cy="-3.5714285714285716" r="1.6666666666666667" fill="#333"/><circle cx="103.57142857142857" cy="-21.428571428571427" r="1.6666666666666667" fill="#333"/><circle cx="101.78571428571429" cy="-26.785714285714285" r="0.8333333333333334" fill="#333"/><circle cx="110.71428571428571" cy="-35.714285714285715" r="0.8333333333333334" fill="#333"/><circle cx="114.28571428571429" cy="-35.714285714285715" r="0.8333333333333334" fill="#333"/><circle cx="123.21428571428571" cy="-26.785714285714285" r="0.8333333333333334" fill="#333"/></g><g transform="rotate(90)"><path d="M 0 0 A100 100 0 0 1 100 -100 A100 100 0 0 1 0 0" fill="#F7F0F5"/><path d="M 100 -100 A62.5 62.5 0 0 1 162.5 -37.5 A62.5 62.5 0 0 1 100 -100" fill="#F7F0F5"/><path d="M 162.5 -37.5 A37.5 37.5 0 0 1 125 0 A37.5 37.5 0 0 1 162.5 -37.5" fill="#F7F0F5"/><path d="M 125 0 A25 25 0 0 1 100 -25 A25 25 0 0 1 125 0" fill="#F7F0F5"/><path d="M 100 -25  A12.5 12.5 0 0 1 112.5 -37.5 A12.5 12.5 0 0 1 100 -25 " fill="#F7F0F5"/><path d="M 112.5 -37.5  A12.5 12.5 0 0 1 125 -25 A12.5 12.5 0 0 1 112.5 -37.5 " fill="#F7F0F5"/></g><g transform="rotate(90)"><circle cx="14.285714285714286" cy="-14.285714285714286" r="6.666666666666667" fill="#333"/><circle cx="85.71428571428571" cy="-85.71428571428571" r="6.666666666666667" fill="#333"/><circle cx="108.92857142857143" cy="-91.07142857142857" r="4.166666666666667" fill="#333"/><circle cx="153.57142857142856" cy="-46.42857142857143" r="4.166666666666667" fill="#333"/><circle cx="157.14285714285714" cy="-32.142857142857146" r="2.5" fill="#333"/><circle cx="130.35714285714286" cy="-5.357142857142854" r="2.5" fill="#333"/><circle cx="121.42857142857143" cy="-3.5714285714285716" r="1.6666666666666667" fill="#333"/><circle cx="103.57142857142857" cy="-21.428571428571427" r="1.6666666666666667" fill="#333"/><circle cx="101.78571428571429" cy="-26.785714285714285" r="0.8333333333333334" fill="#333"/><circle cx="110.71428571428571" cy="-35.714285714285715" r="0.8333333333333334" fill="#333"/><circle cx="114.28571428571429" cy="-35.714285714285715" r="0.8333333333333334" fill="#333"/><circle cx="123.21428571428571" cy="-26.785714285714285" r="0.8333333333333334" fill="#333"/></g></g></svg>