<?xml version="1.0" encoding="UTF-8" standalone="no"?>
<svg
   id="svgcontainer"
   width="400"
   height="400"
   viewBox="0 0 400 400"
   pointer-events="none"
   version="1.1"
   sodipodi:docname="example - 2025-02-14T054739.352.svg"
   inkscape:version="1.2.2 (b0a84865, 2022-12-01)"
   xmlns:inkscape="http://www.inkscape.org/namespaces/inkscape"
   xmlns:sodipodi="http://sodipodi.sourceforge.net/DTD/sodipodi-0.dtd"
   xmlns="http://www.w3.org/2000/svg"
   xmlns:svg="http://www.w3.org/2000/svg">
  <defs
     id="defs55684" />
  <sodipodi:namedview
     id="namedview55682"
     pagecolor="#ffffff"
     bordercolor="#000000"
     borderopacity="0.25"
     inkscape:showpageshadow="2"
     inkscape:pageopacity="0.0"
     inkscape:pagecheckerboard="0"
     inkscape:deskcolor="#d1d1d1"
     showgrid="false"
     inkscape:zoom="0.26624618"
     inkscape:cx="-285.4501"
     inkscape:cy="146.48097"
     inkscape:window-width="1309"
     inkscape:window-height="456"
     inkscape:window-x="0"
     inkscape:window-y="25"
     inkscape:window-maximized="0"
     inkscape:current-layer="svgcontainer" />
  <rect
     width="100%"
     height="100%"
     fill="#38445a"
     id="rect55596"
     x="0"
     y="0" />
  <g
     transform="matrix(1.951348,0,0,1.9777558,203.11667,202.54237)"
     stroke-width="0.1"
     id="container-1739458630423-478617">
    <path
       d="m 0,86.60254 c 16.339746,0 16.339746,-20 32.679492,-20 a 10,10 0 0 1 0,20 5,5 0 0 1 0,-10 c -10,0 -10,10 -20,10 z"
       fill="#b49084"
       stroke="#ffd700"
       id="path55598" />
    <path
       d="m 0,86.60254 c 16.339746,0 16.339746,-20 32.679492,-20 a 10,10 0 0 1 0,20 5,5 0 0 1 0,-10 c -10,0 -10,10 -20,10 z"
       fill="#b49084"
       stroke="#ffd700"
       transform="scale(-1,1)"
       id="path55600" />
    <path
       d="m 0,86.60254 c 16.339746,0 16.339746,-20 32.679492,-20 a 10,10 0 0 1 0,20 5,5 0 0 1 0,-10 c -10,0 -10,10 -20,10 z"
       fill="#e8eadd"
       stroke="#ffd700"
       transform="matrix(0,-1,-1,0,86.60254,86.60254)"
       id="path55602" />
    <path
       d="m 0,86.60254 c 16.339746,0 16.339746,-20 32.679492,-20 a 10,10 0 0 1 0,20 5,5 0 0 1 0,-10 c -10,0 -10,10 -20,10 z"
       fill="#e8eadd"
       stroke="#ffd700"
       transform="rotate(-90,0,86.60254)"
       id="path55604" />
    <path
       d="m 0,0 c 0,17.961524 8,17.961524 8,35.923048 a 4,4 0 0 0 -8,0 8,8 0 0 0 16,0 C 16,17.961524 0,17.961524 0,0"
       fill="#b49084"
       stroke="#ffd700"
       id="path55606" />
    <path
       d="m 0,0 c 0,17.961524 8,17.961524 8,35.923048 a 4,4 0 0 0 -8,0 8,8 0 0 0 16,0 C 16,17.961524 0,17.961524 0,0"
       fill="#b49084"
       stroke="#ffd700"
       transform="scale(-1,1)"
       id="path55608" />
  </g>
  <g
     transform="matrix(0.97567403,1.7127868,-1.6899169,0.98887795,203.11667,202.54237)"
     stroke-width="0.1"
     id="g55623">
    <path
       d="m 0,86.60254 c 16.339746,0 16.339746,-20 32.679492,-20 a 10,10 0 0 1 0,20 5,5 0 0 1 0,-10 c -10,0 -10,10 -20,10 z"
       fill="#b49084"
       stroke="#ffd700"
       id="path55611" />
    <path
       d="m 0,86.60254 c 16.339746,0 16.339746,-20 32.679492,-20 a 10,10 0 0 1 0,20 5,5 0 0 1 0,-10 c -10,0 -10,10 -20,10 z"
       fill="#b49084"
       stroke="#ffd700"
       transform="scale(-1,1)"
       id="path55613" />
    <path
       d="m 0,86.60254 c 16.339746,0 16.339746,-20 32.679492,-20 a 10,10 0 0 1 0,20 5,5 0 0 1 0,-10 c -10,0 -10,10 -20,10 z"
       fill="#e8eadd"
       stroke="#ffd700"
       transform="matrix(0,-1,-1,0,86.60254,86.60254)"
       id="path55615" />
    <path
       d="m 0,86.60254 c 16.339746,0 16.339746,-20 32.679492,-20 a 10,10 0 0 1 0,20 5,5 0 0 1 0,-10 c -10,0 -10,10 -20,10 z"
       fill="#e8eadd"
       stroke="#ffd700"
       transform="rotate(-90,0,86.60254)"
       id="path55617" />
    <path
       d="m 0,0 c 0,17.961524 8,17.961524 8,35.923048 a 4,4 0 0 0 -8,0 8,8 0 0 0 16,0 C 16,17.961524 0,17.961524 0,0"
       fill="#b49084"
       stroke="#ffd700"
       id="path55619" />
    <path
       d="m 0,0 c 0,17.961524 8,17.961524 8,35.923048 a 4,4 0 0 0 -8,0 8,8 0 0 0 16,0 C 16,17.961524 0,17.961524 0,0"
       fill="#b49084"
       stroke="#ffd700"
       transform="scale(-1,1)"
       id="path55621" />
  </g>
  <g
     transform="matrix(-0.97567403,1.7127868,-1.6899169,-0.98887795,203.11667,202.54237)"
     stroke-width="0.1"
     id="g55637">
    <path
       d="m 0,86.60254 c 16.339746,0 16.339746,-20 32.679492,-20 a 10,10 0 0 1 0,20 5,5 0 0 1 0,-10 c -10,0 -10,10 -20,10 z"
       fill="#b49084"
       stroke="#ffd700"
       id="path55625" />
    <path
       d="m 0,86.60254 c 16.339746,0 16.339746,-20 32.679492,-20 a 10,10 0 0 1 0,20 5,5 0 0 1 0,-10 c -10,0 -10,10 -20,10 z"
       fill="#b49084"
       stroke="#ffd700"
       transform="scale(-1,1)"
       id="path55627" />
    <path
       d="m 0,86.60254 c 16.339746,0 16.339746,-20 32.679492,-20 a 10,10 0 0 1 0,20 5,5 0 0 1 0,-10 c -10,0 -10,10 -20,10 z"
       fill="#e8eadd"
       stroke="#ffd700"
       transform="matrix(0,-1,-1,0,86.60254,86.60254)"
       id="path55629" />
    <path
       d="m 0,86.60254 c 16.339746,0 16.339746,-20 32.679492,-20 a 10,10 0 0 1 0,20 5,5 0 0 1 0,-10 c -10,0 -10,10 -20,10 z"
       fill="#e8eadd"
       stroke="#ffd700"
       transform="rotate(-90,0,86.60254)"
       id="path55631" />
    <path
       d="m 0,0 c 0,17.961524 8,17.961524 8,35.923048 a 4,4 0 0 0 -8,0 8,8 0 0 0 16,0 C 16,17.961524 0,17.961524 0,0"
       fill="#b49084"
       stroke="#ffd700"
       id="path55633" />
    <path
       d="m 0,0 c 0,17.961524 8,17.961524 8,35.923048 a 4,4 0 0 0 -8,0 8,8 0 0 0 16,0 C 16,17.961524 0,17.961524 0,0"
       fill="#b49084"
       stroke="#ffd700"
       transform="scale(-1,1)"
       id="path55635" />
  </g>
  <g
     transform="matrix(-1.951348,0,0,-1.9777558,203.11667,202.54237)"
     stroke-width="0.1"
     id="g55651">
    <path
       d="m 0,86.60254 c 16.339746,0 16.339746,-20 32.679492,-20 a 10,10 0 0 1 0,20 5,5 0 0 1 0,-10 c -10,0 -10,10 -20,10 z"
       fill="#b49084"
       stroke="#ffd700"
       id="path55639" />
    <path
       d="m 0,86.60254 c 16.339746,0 16.339746,-20 32.679492,-20 a 10,10 0 0 1 0,20 5,5 0 0 1 0,-10 c -10,0 -10,10 -20,10 z"
       fill="#b49084"
       stroke="#ffd700"
       transform="scale(-1,1)"
       id="path55641" />
    <path
       d="m 0,86.60254 c 16.339746,0 16.339746,-20 32.679492,-20 a 10,10 0 0 1 0,20 5,5 0 0 1 0,-10 c -10,0 -10,10 -20,10 z"
       fill="#e8eadd"
       stroke="#ffd700"
       transform="matrix(0,-1,-1,0,86.60254,86.60254)"
       id="path55643" />
    <path
       d="m 0,86.60254 c 16.339746,0 16.339746,-20 32.679492,-20 a 10,10 0 0 1 0,20 5,5 0 0 1 0,-10 c -10,0 -10,10 -20,10 z"
       fill="#e8eadd"
       stroke="#ffd700"
       transform="rotate(-90,0,86.60254)"
       id="path55645" />
    <path
       d="m 0,0 c 0,17.961524 8,17.961524 8,35.923048 a 4,4 0 0 0 -8,0 8,8 0 0 0 16,0 C 16,17.961524 0,17.961524 0,0"
       fill="#b49084"
       stroke="#ffd700"
       id="path55647" />
    <path
       d="m 0,0 c 0,17.961524 8,17.961524 8,35.923048 a 4,4 0 0 0 -8,0 8,8 0 0 0 16,0 C 16,17.961524 0,17.961524 0,0"
       fill="#b49084"
       stroke="#ffd700"
       transform="scale(-1,1)"
       id="path55649" />
  </g>
  <g
     transform="matrix(-0.97567403,-1.7127868,1.6899169,-0.98887795,203.11667,202.54237)"
     stroke-width="0.1"
     id="g55665">
    <path
       d="m 0,86.60254 c 16.339746,0 16.339746,-20 32.679492,-20 a 10,10 0 0 1 0,20 5,5 0 0 1 0,-10 c -10,0 -10,10 -20,10 z"
       fill="#b49084"
       stroke="#ffd700"
       id="path55653" />
    <path
       d="m 0,86.60254 c 16.339746,0 16.339746,-20 32.679492,-20 a 10,10 0 0 1 0,20 5,5 0 0 1 0,-10 c -10,0 -10,10 -20,10 z"
       fill="#b49084"
       stroke="#ffd700"
       transform="scale(-1,1)"
       id="path55655" />
    <path
       d="m 0,86.60254 c 16.339746,0 16.339746,-20 32.679492,-20 a 10,10 0 0 1 0,20 5,5 0 0 1 0,-10 c -10,0 -10,10 -20,10 z"
       fill="#e8eadd"
       stroke="#ffd700"
       transform="matrix(0,-1,-1,0,86.60254,86.60254)"
       id="path55657" />
    <path
       d="m 0,86.60254 c 16.339746,0 16.339746,-20 32.679492,-20 a 10,10 0 0 1 0,20 5,5 0 0 1 0,-10 c -10,0 -10,10 -20,10 z"
       fill="#e8eadd"
       stroke="#ffd700"
       transform="rotate(-90,0,86.60254)"
       id="path55659" />
    <path
       d="m 0,0 c 0,17.961524 8,17.961524 8,35.923048 a 4,4 0 0 0 -8,0 8,8 0 0 0 16,0 C 16,17.961524 0,17.961524 0,0"
       fill="#b49084"
       stroke="#ffd700"
       id="path55661" />
    <path
       d="m 0,0 c 0,17.961524 8,17.961524 8,35.923048 a 4,4 0 0 0 -8,0 8,8 0 0 0 16,0 C 16,17.961524 0,17.961524 0,0"
       fill="#b49084"
       stroke="#ffd700"
       transform="scale(-1,1)"
       id="path55663" />
  </g>
  <g
     transform="matrix(0.97567403,-1.7127868,1.6899169,0.98887795,203.11667,202.54237)"
     stroke-width="0.1"
     id="g55679">
    <path
       d="m 0,86.60254 c 16.339746,0 16.339746,-20 32.679492,-20 a 10,10 0 0 1 0,20 5,5 0 0 1 0,-10 c -10,0 -10,10 -20,10 z"
       fill="#b49084"
       stroke="#ffd700"
       id="path55667" />
    <path
       d="m 0,86.60254 c 16.339746,0 16.339746,-20 32.679492,-20 a 10,10 0 0 1 0,20 5,5 0 0 1 0,-10 c -10,0 -10,10 -20,10 z"
       fill="#b49084"
       stroke="#ffd700"
       transform="scale(-1,1)"
       id="path55669" />
    <path
       d="m 0,86.60254 c 16.339746,0 16.339746,-20 32.679492,-20 a 10,10 0 0 1 0,20 5,5 0 0 1 0,-10 c -10,0 -10,10 -20,10 z"
       fill="#e8eadd"
       stroke="#ffd700"
       transform="matrix(0,-1,-1,0,86.60254,86.60254)"
       id="path55671" />
    <path
       d="m 0,86.60254 c 16.339746,0 16.339746,-20 32.679492,-20 a 10,10 0 0 1 0,20 5,5 0 0 1 0,-10 c -10,0 -10,10 -20,10 z"
       fill="#e8eadd"
       stroke="#ffd700"
       transform="rotate(-90,0,86.60254)"
       id="path55673" />
    <path
       d="m 0,0 c 0,17.961524 8,17.961524 8,35.923048 a 4,4 0 0 0 -8,0 8,8 0 0 0 16,0 C 16,17.961524 0,17.961524 0,0"
       fill="#b49084"
       stroke="#ffd700"
       id="path55675" />
    <path
       d="m 0,0 c 0,17.961524 8,17.961524 8,35.923048 a 4,4 0 0 0 -8,0 8,8 0 0 0 16,0 C 16,17.961524 0,17.961524 0,0"
       fill="#b49084"
       stroke="#ffd700"
       transform="scale(-1,1)"
       id="path55677" />
  </g>
</svg>
