<?xml version="1.0" encoding="UTF-8" standalone="no"?>
<svg
   width="200"
   height="200"
   version="1.1"
   id="svg437"
   sodipodi:docname="logov2.svg"
   inkscape:version="1.2.2 (b0a84865, 2022-12-01)"
   xmlns:inkscape="http://www.inkscape.org/namespaces/inkscape"
   xmlns:sodipodi="http://sodipodi.sourceforge.net/DTD/sodipodi-0.dtd"
   xmlns="http://www.w3.org/2000/svg"
   xmlns:svg="http://www.w3.org/2000/svg">
  <defs
     id="defs441" />
  <sodipodi:namedview
     id="namedview439"
     pagecolor="#ffffff"
     bordercolor="#000000"
     borderopacity="0.25"
     inkscape:showpageshadow="2"
     inkscape:pageopacity="0.0"
     inkscape:pagecheckerboard="0"
     inkscape:deskcolor="#d1d1d1"
     showgrid="false"
     inkscape:zoom="1.6008304"
     inkscape:cx="172.09818"
     inkscape:cy="129.93257"
     inkscape:window-width="1440"
     inkscape:window-height="900"
     inkscape:window-x="0"
     inkscape:window-y="0"
     inkscape:window-maximized="0"
     inkscape:current-layer="svg437" />
  <rect
     rx="15"
     width="99.999992%"
     height="101.12941%"
     fill="#333"
     id="rect363"
     x="4.3998907e-06"
     y="-2.5372101e-06"
     style="stroke-width:1.00563;fill:#1a1a1a" />
  <g
     transform="matrix(1.1457577,0,0,-1.1045905,99.92775,8.266568)"
     id="g375"
     style="fill:#ffffff">
    <g
       fill="#e4d5b7"
       id="g373"
       style="fill:#ffffff">
      <path
         d="m 0,0 c 15.8,0 15.8,-21.1 31.6,-21.1 a 10.55,10.55 0 0 1 0,21.1 5.25,5.25 0 0 1 0,-10.5 C 21.1,-10.5 21.1,0 10.5,0 Z"
         transform="rotate(-90)"
         id="path365"
         style="fill:#ffffff" />
      <path
         d="m 0,0 c 15.8,0 15.8,-21.1 31.6,-21.1 a 10.55,10.55 0 0 1 0,21.1 5.25,5.25 0 0 1 0,-10.5 C 21.1,-10.5 21.1,0 10.5,0 Z"
         transform="matrix(0,-1,-1,0,0,0)"
         id="path367"
         style="fill:#ffffff" />
      <path
         d="m 7.9,-7.9 a 3.95,3.95 0 0 0 -7.9,0 7.9,7.9 0 0 0 15.8,0 C 15.8,-26.1 0,-26.1 0,-44.4 v 4.9 c 0,14.9 7.9,14.9 7.9,31.6"
         transform="translate(0,-42.2)"
         id="path369"
         style="fill:#ffffff" />
      <path
         d="m 7.9,-7.9 a 3.95,3.95 0 0 0 -7.9,0 7.9,7.9 0 0 0 15.8,0 C 15.8,-26.1 0,-26.1 0,-44.4 v 4.9 c 0,14.9 7.9,14.9 7.9,31.6"
         transform="matrix(-1,0,0,1,0,-42.2)"
         id="path371"
         style="fill:#ffffff" />
    </g>
  </g>
  <g
     transform="matrix(0.57287885,0.95660339,0.99225526,-0.55229523,185.85957,56.096739)"
     id="g387"
     style="fill:#ffffff">
    <g
       fill="#e4d5b7"
       id="g385"
       style="fill:#ffffff">
      <path
         d="m 0,0 c 15.8,0 15.8,-21.1 31.6,-21.1 a 10.55,10.55 0 0 1 0,21.1 5.25,5.25 0 0 1 0,-10.5 C 21.1,-10.5 21.1,0 10.5,0 Z"
         transform="rotate(-90)"
         id="path377"
         style="fill:#ffffff" />
      <path
         d="m 0,0 c 15.8,0 15.8,-21.1 31.6,-21.1 a 10.55,10.55 0 0 1 0,21.1 5.25,5.25 0 0 1 0,-10.5 C 21.1,-10.5 21.1,0 10.5,0 Z"
         transform="matrix(0,-1,-1,0,0,0)"
         id="path379"
         style="fill:#ffffff" />
      <path
         d="m 7.9,-7.9 a 3.95,3.95 0 0 0 -7.9,0 7.9,7.9 0 0 0 15.8,0 C 15.8,-26.1 0,-26.1 0,-44.4 v 4.9 c 0,14.9 7.9,14.9 7.9,31.6"
         transform="translate(0,-42.2)"
         id="path381"
         style="fill:#ffffff" />
      <path
         d="m 7.9,-7.9 a 3.95,3.95 0 0 0 -7.9,0 7.9,7.9 0 0 0 15.8,0 C 15.8,-26.1 0,-26.1 0,-44.4 v 4.9 c 0,14.9 7.9,14.9 7.9,31.6"
         transform="matrix(-1,0,0,1,0,-42.2)"
         id="path383"
         style="fill:#ffffff" />
    </g>
  </g>
  <g
     transform="matrix(-0.57287885,0.95660339,0.99225526,0.55229523,185.85957,151.75707)"
     id="g399"
     style="fill:#ffffff">
    <g
       fill="#e4d5b7"
       id="g397"
       style="fill:#ffffff">
      <path
         d="m 0,0 c 15.8,0 15.8,-21.1 31.6,-21.1 a 10.55,10.55 0 0 1 0,21.1 5.25,5.25 0 0 1 0,-10.5 C 21.1,-10.5 21.1,0 10.5,0 Z"
         transform="rotate(-90)"
         id="path389"
         style="fill:#ffffff" />
      <path
         d="m 0,0 c 15.8,0 15.8,-21.1 31.6,-21.1 a 10.55,10.55 0 0 1 0,21.1 5.25,5.25 0 0 1 0,-10.5 C 21.1,-10.5 21.1,0 10.5,0 Z"
         transform="matrix(0,-1,-1,0,0,0)"
         id="path391"
         style="fill:#ffffff" />
      <path
         d="m 7.9,-7.9 a 3.95,3.95 0 0 0 -7.9,0 7.9,7.9 0 0 0 15.8,0 C 15.8,-26.1 0,-26.1 0,-44.4 v 4.9 c 0,14.9 7.9,14.9 7.9,31.6"
         transform="translate(0,-42.2)"
         id="path393"
         style="fill:#ffffff" />
      <path
         d="m 7.9,-7.9 a 3.95,3.95 0 0 0 -7.9,0 7.9,7.9 0 0 0 15.8,0 C 15.8,-26.1 0,-26.1 0,-44.4 v 4.9 c 0,14.9 7.9,14.9 7.9,31.6"
         transform="matrix(-1,0,0,1,0,-42.2)"
         id="path395"
         style="fill:#ffffff" />
    </g>
  </g>
  <g
     transform="matrix(-1.1457577,0,0,1.1045905,99.92775,199.58724)"
     id="g411"
     style="fill:#ffffff">
    <g
       fill="#e4d5b7"
       id="g409"
       style="fill:#ffffff">
      <path
         d="m 0,0 c 15.8,0 15.8,-21.1 31.6,-21.1 a 10.55,10.55 0 0 1 0,21.1 5.25,5.25 0 0 1 0,-10.5 C 21.1,-10.5 21.1,0 10.5,0 Z"
         transform="rotate(-90)"
         id="path401"
         style="fill:#ffffff" />
      <path
         d="m 0,0 c 15.8,0 15.8,-21.1 31.6,-21.1 a 10.55,10.55 0 0 1 0,21.1 5.25,5.25 0 0 1 0,-10.5 C 21.1,-10.5 21.1,0 10.5,0 Z"
         transform="matrix(0,-1,-1,0,0,0)"
         id="path403"
         style="fill:#ffffff" />
      <path
         d="m 7.9,-7.9 a 3.95,3.95 0 0 0 -7.9,0 7.9,7.9 0 0 0 15.8,0 C 15.8,-26.1 0,-26.1 0,-44.4 v 4.9 c 0,14.9 7.9,14.9 7.9,31.6"
         transform="translate(0,-42.2)"
         id="path405"
         style="fill:#ffffff" />
      <path
         d="m 7.9,-7.9 a 3.95,3.95 0 0 0 -7.9,0 7.9,7.9 0 0 0 15.8,0 C 15.8,-26.1 0,-26.1 0,-44.4 v 4.9 c 0,14.9 7.9,14.9 7.9,31.6"
         transform="matrix(-1,0,0,1,0,-42.2)"
         id="path407"
         style="fill:#ffffff" />
    </g>
  </g>
  <g
     transform="matrix(-0.57287885,-0.95660339,-0.99225526,0.55229523,13.995924,151.75707)"
     id="g423"
     style="fill:#ffffff">
    <g
       fill="#e4d5b7"
       id="g421"
       style="fill:#ffffff">
      <path
         d="m 0,0 c 15.8,0 15.8,-21.1 31.6,-21.1 a 10.55,10.55 0 0 1 0,21.1 5.25,5.25 0 0 1 0,-10.5 C 21.1,-10.5 21.1,0 10.5,0 Z"
         transform="rotate(-90)"
         id="path413"
         style="fill:#ffffff" />
      <path
         d="m 0,0 c 15.8,0 15.8,-21.1 31.6,-21.1 a 10.55,10.55 0 0 1 0,21.1 5.25,5.25 0 0 1 0,-10.5 C 21.1,-10.5 21.1,0 10.5,0 Z"
         transform="matrix(0,-1,-1,0,0,0)"
         id="path415"
         style="fill:#ffffff" />
      <path
         d="m 7.9,-7.9 a 3.95,3.95 0 0 0 -7.9,0 7.9,7.9 0 0 0 15.8,0 C 15.8,-26.1 0,-26.1 0,-44.4 v 4.9 c 0,14.9 7.9,14.9 7.9,31.6"
         transform="translate(0,-42.2)"
         id="path417"
         style="fill:#ffffff" />
      <path
         d="m 7.9,-7.9 a 3.95,3.95 0 0 0 -7.9,0 7.9,7.9 0 0 0 15.8,0 C 15.8,-26.1 0,-26.1 0,-44.4 v 4.9 c 0,14.9 7.9,14.9 7.9,31.6"
         transform="matrix(-1,0,0,1,0,-42.2)"
         id="path419"
         style="fill:#ffffff" />
    </g>
  </g>
  <g
     transform="matrix(0.57287885,-0.95660339,-0.99225526,-0.55229523,13.995924,56.096739)"
     id="g435"
     style="fill:#ffffff">
    <g
       fill="#e4d5b7"
       id="g433"
       style="fill:#ffffff">
      <path
         d="m 0,0 c 15.8,0 15.8,-21.1 31.6,-21.1 a 10.55,10.55 0 0 1 0,21.1 5.25,5.25 0 0 1 0,-10.5 C 21.1,-10.5 21.1,0 10.5,0 Z"
         transform="rotate(-90)"
         id="path425"
         style="fill:#ffffff" />
      <path
         d="m 0,0 c 15.8,0 15.8,-21.1 31.6,-21.1 a 10.55,10.55 0 0 1 0,21.1 5.25,5.25 0 0 1 0,-10.5 C 21.1,-10.5 21.1,0 10.5,0 Z"
         transform="matrix(0,-1,-1,0,0,0)"
         id="path427"
         style="fill:#ffffff" />
      <path
         d="m 7.9,-7.9 a 3.95,3.95 0 0 0 -7.9,0 7.9,7.9 0 0 0 15.8,0 C 15.8,-26.1 0,-26.1 0,-44.4 v 4.9 c 0,14.9 7.9,14.9 7.9,31.6"
         transform="translate(0,-42.2)"
         id="path429"
         style="fill:#ffffff" />
      <path
         d="m 7.9,-7.9 a 3.95,3.95 0 0 0 -7.9,0 7.9,7.9 0 0 0 15.8,0 C 15.8,-26.1 0,-26.1 0,-44.4 v 4.9 c 0,14.9 7.9,14.9 7.9,31.6"
         transform="matrix(-1,0,0,1,0,-42.2)"
         id="path431"
         style="fill:#ffffff" />
    </g>
  </g>
</svg>
