<?xml version="1.0" encoding="UTF-8"?>
<svg xmlns="http://www.w3.org/2000/svg" xmlns:xlink="http://www.w3.org/1999/xlink" width="30px" height="30px" viewBox="0 0 30 30" version="1.1">
<g id="surface1">
<rect x="0" y="0" width="30" height="30" rx="2" style="fill:rgb(21.960784%,26.666668%,35.294119%);fill-opacity:1;stroke:none;"/>
<path style="fill-rule:nonzero;fill:rgb(70.588237%,56.470591%,51.764709%);fill-opacity:1;stroke-width:0.1;stroke-linecap:butt;stroke-linejoin:miter;stroke:rgb(100%,84.313726%,0%);stroke-opacity:1;stroke-miterlimit:4;" d="M 0.00426951 86.592951 C 16.339132 86.592951 16.339132 66.605018 32.673994 66.605018 C 38.199021 66.605018 42.683101 71.081894 42.683101 76.612152 C 42.683101 82.116075 38.199021 86.592951 32.673994 86.592951 C 29.924826 86.592951 27.682786 84.354513 27.682786 81.589384 C 27.682786 78.85059 29.924826 76.612152 32.673994 76.612152 C 22.691578 76.612152 22.691578 86.592951 12.682471 86.592951 Z M 0.00426951 86.592951 " transform="matrix(0.146351,0,0,0.148332,15.23375,15.190678)"/>
<path style="fill-rule:nonzero;fill:rgb(70.588237%,56.470591%,51.764709%);fill-opacity:1;stroke-width:0.1;stroke-linecap:butt;stroke-linejoin:miter;stroke:rgb(100%,84.313726%,0%);stroke-opacity:1;stroke-miterlimit:4;" d="M -0.00426951 86.592951 C 16.330593 86.592951 16.330593 66.605018 32.692146 66.605018 C 38.190482 66.605018 42.674562 71.081894 42.674562 76.612152 C 42.674562 82.116075 38.190482 86.592951 32.692146 86.592951 C 29.916287 86.592951 27.674247 84.354513 27.674247 81.589384 C 27.674247 78.85059 29.916287 76.612152 32.692146 76.612152 C 22.683039 76.612152 22.683039 86.592951 12.673932 86.592951 Z M -0.00426951 86.592951 " transform="matrix(-0.146351,0,0,0.148332,15.23375,15.190678)"/>
<path style="fill-rule:nonzero;fill:rgb(90.980393%,91.764706%,86.666667%);fill-opacity:1;stroke-width:0.1;stroke-linecap:butt;stroke-linejoin:miter;stroke:rgb(100%,84.313726%,0%);stroke-opacity:1;stroke-miterlimit:4;" d="M 0.00958811 86.59827 C 16.337017 86.59827 16.337017 66.606747 32.69078 66.606747 C 38.194704 66.606747 42.671579 71.090827 42.671579 76.615854 C 42.671579 82.11419 38.194704 86.59827 32.69078 86.59827 C 29.925651 86.59827 27.687213 84.35623 27.687213 81.607062 C 27.687213 78.831203 29.925651 76.615854 32.69078 76.615854 C 22.683646 76.615854 22.683646 86.59827 12.676513 86.59827 Z M 0.00958811 86.59827 " transform="matrix(0,-0.148332,-0.146351,0,27.908127,28.036578)"/>
<path style="fill-rule:nonzero;fill:rgb(90.980393%,91.764706%,86.666667%);fill-opacity:1;stroke-width:0.1;stroke-linecap:butt;stroke-linejoin:miter;stroke:rgb(100%,84.313726%,0%);stroke-opacity:1;stroke-miterlimit:4;" d="M 0.00958811 86.606809 C 16.337017 86.606809 16.337017 66.615286 32.69078 66.615286 C 38.194704 66.615286 42.671579 71.072675 42.671579 76.597702 C 42.671579 82.122729 38.194704 86.606809 32.69078 86.606809 C 29.925651 86.606809 27.687213 84.364769 27.687213 81.615601 C 27.687213 78.839742 29.925651 76.597702 32.69078 76.597702 C 22.683646 76.597702 22.683646 86.606809 12.676513 86.606809 Z M 0.00958811 86.606809 " transform="matrix(0.000000000000000009,-0.148332,0.146351,0.000000000000000009,2.559374,28.036578)"/>
<path style="fill-rule:nonzero;fill:rgb(70.588237%,56.470591%,51.764709%);fill-opacity:1;stroke-width:0.1;stroke-linecap:butt;stroke-linejoin:miter;stroke:rgb(100%,84.313726%,0%);stroke-opacity:1;stroke-miterlimit:4;" d="M 0.00426951 0.00490944 C 0.00426951 17.965081 8.011555 17.965081 8.011555 35.925253 C 8.011555 33.713149 6.19657 31.922399 4.007912 31.922399 C 1.792563 31.922399 0.00426951 33.713149 0.00426951 35.925253 C 0.00426951 40.349459 3.580857 43.93096 8.011555 43.93096 C 12.415562 43.93096 15.992149 40.349459 15.992149 35.925253 C 15.992149 17.965081 0.00426951 17.965081 0.00426951 0.00490944 " transform="matrix(0.146351,0,0,0.148332,15.23375,15.190678)"/>
<path style="fill-rule:nonzero;fill:rgb(70.588237%,56.470591%,51.764709%);fill-opacity:1;stroke-width:0.1;stroke-linecap:butt;stroke-linejoin:miter;stroke:rgb(100%,84.313726%,0%);stroke-opacity:1;stroke-miterlimit:4;" d="M -0.00426951 0.00490944 C -0.00426951 17.965081 8.003016 17.965081 8.003016 35.925253 C 8.003016 33.713149 6.214722 31.922399 3.999373 31.922399 C 1.784024 31.922399 -0.00426951 33.713149 -0.00426951 35.925253 C -0.00426951 40.349459 3.572318 43.93096 8.003016 43.93096 C 12.407023 43.93096 16.010301 40.349459 16.010301 35.925253 C 16.010301 17.965081 -0.00426951 17.965081 -0.00426951 0.00490944 " transform="matrix(-0.146351,0,0,0.148332,15.23375,15.190678)"/>
<path style="fill-rule:nonzero;fill:rgb(70.588237%,56.470591%,51.764709%);fill-opacity:1;stroke-width:0.1;stroke-linecap:butt;stroke-linejoin:miter;stroke:rgb(100%,84.313726%,0%);stroke-opacity:1;stroke-miterlimit:4;" d="M -0.00068179 86.599036 C 16.33007 86.596664 16.347659 66.604602 32.678411 66.602229 C 38.203759 66.617825 42.68077 71.082652 42.686602 76.602809 C 42.692433 82.122966 38.199516 86.586772 32.683628 86.607458 C 29.914281 86.611218 27.682449 84.367247 27.674803 81.589027 C 27.676617 78.84709 29.918345 76.597046 32.687692 76.593286 C 22.675438 76.606878 22.684719 86.597935 12.672464 86.611528 Z M -0.00068179 86.599036 " transform="matrix(0.0731756,0.128459,-0.126744,0.0741658,15.23375,15.190678)"/>
<path style="fill-rule:nonzero;fill:rgb(70.588237%,56.470591%,51.764709%);fill-opacity:1;stroke-width:0.1;stroke-linecap:butt;stroke-linejoin:miter;stroke:rgb(100%,84.313726%,0%);stroke-opacity:1;stroke-miterlimit:4;" d="M 0.00068179 86.599036 C 16.331434 86.601409 16.336651 66.596179 32.667403 66.598552 C 38.206097 66.606071 42.676208 71.083044 42.670376 76.603201 C 42.664545 82.123358 38.20088 86.6113 32.684992 86.590614 C 29.92899 86.609969 27.687262 84.359925 27.672102 81.594873 C 27.693094 78.839768 29.924926 76.595797 32.671467 76.612724 C 22.682019 76.585965 22.686083 86.600137 12.687173 86.60966 Z M 0.00068179 86.599036 " transform="matrix(-0.0731756,-0.128459,-0.126744,0.0741658,15.23375,15.190678)"/>
<path style="fill-rule:nonzero;fill:rgb(90.980393%,91.764706%,86.666667%);fill-opacity:1;stroke-width:0.1;stroke-linecap:butt;stroke-linejoin:miter;stroke:rgb(100%,84.313726%,0%);stroke-opacity:1;stroke-miterlimit:4;" d="M 0.003503 86.603221 C 16.336333 86.600102 16.340402 66.588938 32.686399 66.608626 C 38.206556 66.614457 42.671383 71.091468 42.673811 76.59401 C 42.689407 82.119359 38.189319 86.602815 32.669162 86.596983 C 29.927225 86.598798 27.683254 84.366966 27.687013 81.597619 C 27.667658 78.841617 29.917702 76.599889 32.695922 76.607535 C 22.681749 76.611599 22.691272 86.610508 12.6771 86.614572 Z M 0.003503 86.603221 " transform="matrix(0.126744,-0.0741658,-0.0731756,-0.128459,10.594607,32.738505)"/>
<path style="fill-rule:nonzero;fill:rgb(90.980393%,91.764706%,86.666667%);fill-opacity:1;stroke-width:0.1;stroke-linecap:butt;stroke-linejoin:miter;stroke:rgb(100%,84.313726%,0%);stroke-opacity:1;stroke-miterlimit:4;" d="M 0.003503 86.601857 C 16.336333 86.604976 16.332263 66.593812 32.688208 66.610276 C 38.208365 66.604445 42.685338 71.074555 42.669742 76.599904 C 42.677261 82.138598 38.189319 86.602263 32.669162 86.608095 C 29.927225 86.60628 27.677181 84.364552 27.673421 81.595205 C 27.692777 78.839203 29.913632 76.594025 32.678685 76.609185 C 22.664513 76.605121 22.691272 86.59457 12.6771 86.590506 Z M 0.003503 86.601857 " transform="matrix(0.126744,-0.0741658,0.0731756,0.128459,-2.07977,10.488752)"/>
<path style="fill-rule:nonzero;fill:rgb(70.588237%,56.470591%,51.764709%);fill-opacity:1;stroke-width:0.1;stroke-linecap:butt;stroke-linejoin:miter;stroke:rgb(100%,84.313726%,0%);stroke-opacity:1;stroke-miterlimit:4;" d="M 0.00638646 -0.00124278 C 0.00295587 17.96487 8.00286 17.960608 7.99943 35.926721 C 8.002435 33.709412 6.201731 31.930094 3.9897 31.916599 C 1.800475 31.916272 0.00253082 33.713673 -0.000474708 35.930982 C 0.00685971 40.342485 3.594922 43.924236 8.009524 43.914944 C 12.410781 43.928766 16.006668 40.333962 15.999334 35.92246 C 16.002765 17.956347 0.00295587 17.96487 0.00638646 -0.00124278 " transform="matrix(0.0731756,0.128459,-0.126744,0.0741658,15.23375,15.190678)"/>
<path style="fill-rule:nonzero;fill:rgb(70.588237%,56.470591%,51.764709%);fill-opacity:1;stroke-width:0.1;stroke-linecap:butt;stroke-linejoin:miter;stroke:rgb(100%,84.313726%,0%);stroke-opacity:1;stroke-miterlimit:4;" d="M -0.00638646 -0.00124278 C -0.00295587 17.96487 7.996948 17.969131 8.000379 35.935243 C 7.997374 33.717935 6.19943 31.920533 4.010204 31.92086 C 1.784827 31.91124 -0.00253082 33.713673 0.000474708 35.930982 C -0.00685971 40.342485 3.575682 43.914173 7.990285 43.923466 C 12.427693 43.919591 15.992949 40.351007 15.986938 35.91639 C 15.996853 17.973392 -0.00295587 17.96487 -0.00638646 -0.00124278 " transform="matrix(-0.0731756,-0.128459,-0.126744,0.0741658,15.23375,15.190678)"/>
<path style="fill-rule:nonzero;fill:rgb(70.588237%,56.470591%,51.764709%);fill-opacity:1;stroke-width:0.1;stroke-linecap:butt;stroke-linejoin:miter;stroke:rgb(100%,84.313726%,0%);stroke-opacity:1;stroke-miterlimit:4;" d="M 0.00918519 86.594127 C 16.339937 86.596499 16.345155 66.59127 32.675907 66.593643 C 38.214601 66.601162 42.684711 71.078135 42.67888 76.598292 C 42.673048 82.118449 38.209383 86.606391 32.670689 86.598872 C 29.914687 86.618227 27.672959 84.368183 27.680606 81.589963 C 27.678791 78.848026 29.910623 76.604055 32.67997 76.607815 C 22.667716 76.594222 22.67178 86.608395 12.695677 86.60475 Z M 0.00918519 86.594127 " transform="matrix(-0.0731756,0.128459,-0.126744,-0.0741658,15.23375,15.190678)"/>
<path style="fill-rule:nonzero;fill:rgb(70.588237%,56.470591%,51.764709%);fill-opacity:1;stroke-width:0.1;stroke-linecap:butt;stroke-linejoin:miter;stroke:rgb(100%,84.313726%,0%);stroke-opacity:1;stroke-miterlimit:4;" d="M -0.00918519 86.594127 C 16.344373 86.604921 16.339156 66.599692 32.669907 66.59732 C 38.195256 66.612915 42.672267 71.077742 42.678098 76.597899 C 42.68393 82.118057 38.213819 86.59503 32.675125 86.602549 C 29.905778 86.606308 27.673945 84.362337 27.689106 81.597285 C 27.668114 78.84218 29.909842 76.592136 32.679189 76.588377 C 22.666934 76.601969 22.676216 86.593026 12.663961 86.606618 Z M -0.00918519 86.594127 " transform="matrix(0.0731756,-0.128459,-0.126744,-0.0741658,15.23375,15.190678)"/>
<path style="fill-rule:nonzero;fill:rgb(90.980393%,91.764706%,86.666667%);fill-opacity:1;stroke-width:0.1;stroke-linecap:butt;stroke-linejoin:miter;stroke:rgb(100%,84.313726%,0%);stroke-opacity:1;stroke-miterlimit:4;" d="M 0.00841244 86.593354 C 16.341242 86.596473 16.324005 66.608115 32.693117 66.601773 C 38.213274 66.595941 42.67708 71.088858 42.674651 76.591401 C 42.682171 82.130095 38.194229 86.59376 32.674072 86.599591 C 29.932134 86.597777 27.68209 84.356049 27.67833 81.586701 C 27.684519 78.853506 29.905375 76.608328 32.683594 76.600682 C 22.669422 76.596618 22.683014 86.608873 12.668842 86.604809 Z M 0.00841244 86.593354 " transform="matrix(0.126744,0.0741658,0.0731756,-0.128459,-2.07977,19.892604)"/>
<path style="fill-rule:nonzero;fill:rgb(90.980393%,91.764706%,86.666667%);fill-opacity:1;stroke-width:0.1;stroke-linecap:butt;stroke-linejoin:miter;stroke:rgb(100%,84.313726%,0%);stroke-opacity:1;stroke-miterlimit:4;" d="M 0.00841244 86.611724 C 16.341242 86.608606 16.345311 66.597442 32.678141 66.594323 C 38.198298 66.600154 42.663125 71.077165 42.678721 76.602514 C 42.694317 82.127862 38.194229 86.611318 32.674072 86.605487 C 29.932134 86.607301 27.674996 84.352663 27.691923 81.606122 C 27.672567 78.85012 29.922611 76.608392 32.687664 76.593232 C 22.673492 76.597296 22.683014 86.596205 12.668842 86.600269 Z M 0.00841244 86.611724 " transform="matrix(0.126744,0.0741658,-0.0731756,0.128459,10.594607,-2.357149)"/>
<path style="fill-rule:nonzero;fill:rgb(70.588237%,56.470591%,51.764709%);fill-opacity:1;stroke-width:0.1;stroke-linecap:butt;stroke-linejoin:miter;stroke:rgb(100%,84.313726%,0%);stroke-opacity:1;stroke-miterlimit:4;" d="M 0.00211695 -0.00615222 C 0.00554753 17.95996 8.005452 17.964221 8.008882 35.930334 C 8.005877 33.713025 6.207933 31.915623 3.995901 31.929118 C 1.793331 31.906331 0.00597258 33.708764 0.00897811 35.926073 C 0.00164369 40.337575 3.584186 43.909264 7.998788 43.918557 C 12.41339 43.927849 16.001452 40.346098 15.995441 35.91148 C 16.005356 17.968483 0.00554753 17.95996 0.00211695 -0.00615222 " transform="matrix(-0.0731756,0.128459,-0.126744,-0.0741658,15.23375,15.190678)"/>
<path style="fill-rule:nonzero;fill:rgb(70.588237%,56.470591%,51.764709%);fill-opacity:1;stroke-width:0.1;stroke-linecap:butt;stroke-linejoin:miter;stroke:rgb(100%,84.313726%,0%);stroke-opacity:1;stroke-miterlimit:4;" d="M -0.00211695 -0.00615222 C -0.00554753 17.95996 7.994357 17.955699 7.990926 35.921812 C 7.993932 33.704503 6.193228 31.925184 4.004003 31.924857 C 1.791971 31.911362 -0.00597258 33.708764 -0.00897811 35.926073 C -0.00164369 40.337575 3.586418 43.919327 8.001021 43.910034 C 12.425084 43.937024 15.998165 40.329053 15.990831 35.91755 C 15.994261 17.951438 -0.00554753 17.95996 -0.00211695 -0.00615222 " transform="matrix(0.0731756,-0.128459,-0.126744,-0.0741658,15.23375,15.190678)"/>
<path style="fill-rule:nonzero;fill:rgb(70.588237%,56.470591%,51.764709%);fill-opacity:1;stroke-width:0.1;stroke-linecap:butt;stroke-linejoin:miter;stroke:rgb(100%,84.313726%,0%);stroke-opacity:1;stroke-miterlimit:4;" d="M -0.00426951 86.609467 C 16.330593 86.609467 16.330593 66.595199 32.692146 66.595199 C 38.190482 66.595199 42.674562 71.072075 42.674562 76.602333 C 42.674562 82.132591 38.190482 86.609467 32.692146 86.609467 C 29.916287 86.609467 27.674247 84.371029 27.674247 81.6059 C 27.674247 78.840771 29.916287 76.602333 32.692146 76.602333 C 22.683039 76.602333 22.683039 86.609467 12.673932 86.609467 Z M -0.00426951 86.609467 " transform="matrix(-0.146351,0,0,-0.148332,15.23375,15.190678)"/>
<path style="fill-rule:nonzero;fill:rgb(70.588237%,56.470591%,51.764709%);fill-opacity:1;stroke-width:0.1;stroke-linecap:butt;stroke-linejoin:miter;stroke:rgb(100%,84.313726%,0%);stroke-opacity:1;stroke-miterlimit:4;" d="M 0.00426951 86.609467 C 16.339132 86.609467 16.339132 66.595199 32.673994 66.595199 C 38.199021 66.595199 42.683101 71.072075 42.683101 76.602333 C 42.683101 82.132591 38.199021 86.609467 32.673994 86.609467 C 29.924826 86.609467 27.682786 84.371029 27.682786 81.6059 C 27.682786 78.840771 29.924826 76.602333 32.673994 76.602333 C 22.691578 76.602333 22.691578 86.609467 12.682471 86.609467 Z M 0.00426951 86.609467 " transform="matrix(0.146351,0,0,-0.148332,15.23375,15.190678)"/>
<path style="fill-rule:nonzero;fill:rgb(90.980393%,91.764706%,86.666667%);fill-opacity:1;stroke-width:0.1;stroke-linecap:butt;stroke-linejoin:miter;stroke:rgb(100%,84.313726%,0%);stroke-opacity:1;stroke-miterlimit:4;" d="M -0.00692756 86.606809 C 16.346836 86.606809 16.346836 66.615286 32.674264 66.615286 C 38.204523 66.615286 42.681398 71.072675 42.681398 76.597702 C 42.681398 82.122729 38.204523 86.606809 32.674264 86.606809 C 29.909135 86.606809 27.670698 84.364769 27.670698 81.615601 C 27.670698 78.839742 29.909135 76.597702 32.674264 76.597702 C 22.667131 76.597702 22.667131 86.606809 12.686332 86.606809 Z M -0.00692756 86.606809 " transform="matrix(0,0.148332,0.146351,0,2.559374,2.344778)"/>
<path style="fill-rule:nonzero;fill:rgb(90.980393%,91.764706%,86.666667%);fill-opacity:1;stroke-width:0.1;stroke-linecap:butt;stroke-linejoin:miter;stroke:rgb(100%,84.313726%,0%);stroke-opacity:1;stroke-miterlimit:4;" d="M -0.00692756 86.59827 C 16.346836 86.59827 16.346836 66.606747 32.674264 66.606747 C 38.204523 66.606747 42.681398 71.090827 42.681398 76.615854 C 42.681398 82.11419 38.204523 86.59827 32.674264 86.59827 C 29.909135 86.59827 27.670698 84.35623 27.670698 81.607062 C 27.670698 78.831203 29.909135 76.615854 32.674264 76.615854 C 22.667131 76.615854 22.667131 86.59827 12.686332 86.59827 Z M -0.00692756 86.59827 " transform="matrix(-0.000000000000000009,0.148332,-0.146351,-0.000000000000000009,27.908127,2.344778)"/>
<path style="fill-rule:nonzero;fill:rgb(70.588237%,56.470591%,51.764709%);fill-opacity:1;stroke-width:0.1;stroke-linecap:butt;stroke-linejoin:miter;stroke:rgb(100%,84.313726%,0%);stroke-opacity:1;stroke-miterlimit:4;" d="M -0.00426951 -0.00490944 C -0.00426951 17.955262 8.003016 17.955262 8.003016 35.915434 C 8.003016 33.703331 6.214722 31.91258 3.999373 31.91258 C 1.784024 31.91258 -0.00426951 33.703331 -0.00426951 35.915434 C -0.00426951 40.33964 3.572318 43.921141 8.003016 43.921141 C 12.407023 43.921141 16.010301 40.33964 16.010301 35.915434 C 16.010301 17.955262 -0.00426951 17.955262 -0.00426951 -0.00490944 " transform="matrix(-0.146351,0,0,-0.148332,15.23375,15.190678)"/>
<path style="fill-rule:nonzero;fill:rgb(70.588237%,56.470591%,51.764709%);fill-opacity:1;stroke-width:0.1;stroke-linecap:butt;stroke-linejoin:miter;stroke:rgb(100%,84.313726%,0%);stroke-opacity:1;stroke-miterlimit:4;" d="M 0.00426951 -0.00490944 C 0.00426951 17.955262 8.011555 17.955262 8.011555 35.915434 C 8.011555 33.703331 6.19657 31.91258 4.007912 31.91258 C 1.792563 31.91258 0.00426951 33.703331 0.00426951 35.915434 C 0.00426951 40.33964 3.580857 43.921141 8.011555 43.921141 C 12.415562 43.921141 15.992149 40.33964 15.992149 35.915434 C 15.992149 17.955262 0.00426951 17.955262 0.00426951 -0.00490944 " transform="matrix(0.146351,0,0,-0.148332,15.23375,15.190678)"/>
<path style="fill-rule:nonzero;fill:rgb(70.588237%,56.470591%,51.764709%);fill-opacity:1;stroke-width:0.1;stroke-linecap:butt;stroke-linejoin:miter;stroke:rgb(100%,84.313726%,0%);stroke-opacity:1;stroke-miterlimit:4;" d="M -0.0134547 86.601522 C 16.340104 86.612316 16.334886 66.607087 32.665638 66.604715 C 38.204332 66.597195 42.667997 71.085137 42.673829 76.605294 C 42.67966 82.125452 38.20955 86.602425 32.670855 86.609944 C 29.914854 86.590588 27.669676 84.369732 27.684836 81.60468 C 27.67719 78.82646 29.905572 76.599531 32.674919 76.595772 C 22.67601 76.586249 22.671946 86.600421 12.673037 86.590898 Z M -0.0134547 86.601522 " transform="matrix(-0.0731756,-0.128459,0.126744,-0.0741658,15.23375,15.190678)"/>
<path style="fill-rule:nonzero;fill:rgb(70.588237%,56.470591%,51.764709%);fill-opacity:1;stroke-width:0.1;stroke-linecap:butt;stroke-linejoin:miter;stroke:rgb(100%,84.313726%,0%);stroke-opacity:1;stroke-miterlimit:4;" d="M 0.0134547 86.601522 C 16.344207 86.603894 16.349424 66.598665 32.680176 66.601038 C 38.205525 66.585442 42.688981 71.08553 42.683149 76.605687 C 42.677318 82.125844 38.200307 86.590671 32.674958 86.606267 C 29.905611 86.602507 27.677229 84.375578 27.684875 81.597358 C 27.669715 78.832306 29.914893 76.61145 32.670895 76.592095 C 22.671985 76.601617 22.676049 86.61579 12.686601 86.58903 Z M 0.0134547 86.601522 " transform="matrix(0.0731756,0.128459,0.126744,-0.0741658,15.23375,15.190678)"/>
<path style="fill-rule:nonzero;fill:rgb(90.980393%,91.764706%,86.666667%);fill-opacity:1;stroke-width:0.1;stroke-linecap:butt;stroke-linejoin:miter;stroke:rgb(100%,84.313726%,0%);stroke-opacity:1;stroke-miterlimit:4;" d="M 0.00101743 86.615994 C 16.333847 86.612875 16.337916 66.601711 32.670746 66.598592 C 38.190903 66.604424 42.678845 71.068089 42.671326 76.606783 C 42.686922 82.132132 38.209949 86.602243 32.689792 86.596411 C 29.924739 86.611571 27.667601 84.356932 27.684528 81.610391 C 27.688287 78.841044 29.915216 76.612662 32.680269 76.597502 C 22.666097 76.601566 22.675619 86.600475 12.684562 86.591193 Z M 0.00101743 86.615994 " transform="matrix(-0.126744,0.0741658,0.0731756,0.128459,19.872893,-2.357149)"/>
<path style="fill-rule:nonzero;fill:rgb(90.980393%,91.764706%,86.666667%);fill-opacity:1;stroke-width:0.1;stroke-linecap:butt;stroke-linejoin:miter;stroke:rgb(100%,84.313726%,0%);stroke-opacity:1;stroke-miterlimit:4;" d="M 0.00101743 86.589084 C 16.333847 86.592203 16.339725 66.617191 32.685722 66.597503 C 38.205879 66.591672 42.669685 71.084589 42.690371 76.600476 C 42.674776 82.125825 38.209949 86.602836 32.689792 86.608667 C 29.924739 86.593507 27.674695 84.351779 27.694051 81.595777 C 27.677124 78.849237 29.921095 76.617404 32.676199 76.596413 C 22.685142 76.605694 22.675619 86.604603 12.684562 86.613885 Z M 0.00101743 86.589084 " transform="matrix(-0.126744,0.0741658,-0.0731756,-0.128459,32.547271,19.892604)"/>
<path style="fill-rule:nonzero;fill:rgb(70.588237%,56.470591%,51.764709%);fill-opacity:1;stroke-width:0.1;stroke-linecap:butt;stroke-linejoin:miter;stroke:rgb(100%,84.313726%,0%);stroke-opacity:1;stroke-miterlimit:4;" d="M -0.00638646 0.00124278 C -0.00981704 17.967355 7.990087 17.963094 7.986657 35.929207 C 7.989662 33.711898 6.202304 31.909464 3.999733 31.932252 C 1.787702 31.918757 -0.0102421 33.716159 0.0000978564 35.910353 C -0.0059132 40.34497 3.582149 43.926722 7.996751 43.917429 C 12.43416 43.921304 15.993895 40.336448 15.986561 35.924945 C 15.989992 17.958833 -0.00981704 17.967355 -0.00638646 0.00124278 " transform="matrix(-0.0731756,-0.128459,0.126744,-0.0741658,15.23375,15.190678)"/>
<path style="fill-rule:nonzero;fill:rgb(70.588237%,56.470591%,51.764709%);fill-opacity:1;stroke-width:0.1;stroke-linecap:butt;stroke-linejoin:miter;stroke:rgb(100%,84.313726%,0%);stroke-opacity:1;stroke-miterlimit:4;" d="M 0.00638646 0.00124278 C 0.00981704 17.967355 7.996376 17.948501 7.999806 35.914614 C 8.010146 33.72042 6.212203 31.923018 4.000171 31.936513 C 1.7976 31.913726 0.0102421 33.716159 -0.0000978564 35.910353 C 0.0059132 40.34497 3.588455 43.916659 8.003058 43.925952 C 12.41766 43.935244 15.992376 40.330378 15.999711 35.918875 C 15.99628 17.952763 0.00981704 17.967355 0.00638646 0.00124278 " transform="matrix(0.0731756,0.128459,0.126744,-0.0741658,15.23375,15.190678)"/>
<path style="fill-rule:nonzero;fill:rgb(70.588237%,56.470591%,51.764709%);fill-opacity:1;stroke-width:0.1;stroke-linecap:butt;stroke-linejoin:miter;stroke:rgb(100%,84.313726%,0%);stroke-opacity:1;stroke-miterlimit:4;" d="M 0.0049513 86.606431 C 16.335703 86.608804 16.340921 66.603574 32.671673 66.605947 C 38.197021 66.590351 42.680478 71.090439 42.674646 76.610596 C 42.668814 82.130753 38.191804 86.59558 32.689261 86.598009 C 29.919914 86.594249 27.691532 84.36732 27.676372 81.602268 C 27.684018 78.824048 29.929196 76.603192 32.662391 76.597004 C 22.686288 76.59336 22.690352 86.607532 12.678097 86.59394 Z M 0.0049513 86.606431 " transform="matrix(0.0731756,-0.128459,0.126744,0.0741658,15.23375,15.190678)"/>
<path style="fill-rule:nonzero;fill:rgb(70.588237%,56.470591%,51.764709%);fill-opacity:1;stroke-width:0.1;stroke-linecap:butt;stroke-linejoin:miter;stroke:rgb(100%,84.313726%,0%);stroke-opacity:1;stroke-miterlimit:4;" d="M -0.0049513 86.606431 C 16.325801 86.604059 16.343389 66.611997 32.674141 66.609624 C 38.212835 66.602105 42.6765 71.090047 42.682332 76.610204 C 42.688164 82.130361 38.195247 86.594167 32.679359 86.614853 C 29.923357 86.595498 27.678179 84.374642 27.670533 81.596422 C 27.685693 78.83137 29.914076 76.604441 32.683423 76.600681 C 22.684514 76.591158 22.68045 86.60533 12.68154 86.595808 Z M -0.0049513 86.606431 " transform="matrix(-0.0731756,0.128459,0.126744,0.0741658,15.23375,15.190678)"/>
<path style="fill-rule:nonzero;fill:rgb(90.980393%,91.764706%,86.666667%);fill-opacity:1;stroke-width:0.1;stroke-linecap:butt;stroke-linejoin:miter;stroke:rgb(100%,84.313726%,0%);stroke-opacity:1;stroke-miterlimit:4;" d="M -0.00389201 86.597588 C 16.328938 86.600706 16.347983 66.602888 32.680813 66.606007 C 38.20097 66.600175 42.677943 71.070286 42.685462 76.60898 C 42.669866 82.134329 38.205039 86.611339 32.684882 86.617171 C 29.91983 86.602011 27.669786 84.360282 27.689141 81.604281 C 27.685382 78.834934 29.929353 76.603101 32.67129 76.604916 C 22.680233 76.614197 22.683877 86.5903 12.69282 86.599582 Z M -0.00389201 86.597588 " transform="matrix(-0.126744,-0.0741658,-0.0731756,0.128459,32.547271,10.488752)"/>
<path style="fill-rule:nonzero;fill:rgb(90.980393%,91.764706%,86.666667%);fill-opacity:1;stroke-width:0.1;stroke-linecap:butt;stroke-linejoin:miter;stroke:rgb(100%,84.313726%,0%);stroke-opacity:1;stroke-miterlimit:4;" d="M -0.00389201 86.60749 C 16.328938 86.604372 16.333007 66.593208 32.679004 66.612895 C 38.199161 66.618727 42.687103 71.082392 42.666416 76.59828 C 42.682012 82.123628 38.205039 86.593739 32.684882 86.587907 C 29.91983 86.603068 27.675859 84.371235 27.679618 81.601888 C 27.683378 78.832541 29.910307 76.604158 32.688527 76.611805 C 22.674354 76.615869 22.683877 86.614778 12.69282 86.605496 Z M -0.00389201 86.60749 " transform="matrix(-0.126744,-0.0741658,0.0731756,-0.128459,19.872893,32.738505)"/>
<path style="fill-rule:nonzero;fill:rgb(70.588237%,56.470591%,51.764709%);fill-opacity:1;stroke-width:0.1;stroke-linecap:butt;stroke-linejoin:miter;stroke:rgb(100%,84.313726%,0%);stroke-opacity:1;stroke-miterlimit:4;" d="M -0.00211695 0.00615222 C 0.00131364 17.972265 7.987872 17.953411 7.991303 35.919523 C 8.001643 33.72533 6.203699 31.927928 4.014474 31.928255 C 1.789097 31.918635 0.00173869 33.721068 -0.00860126 35.915262 C -0.0025902 40.34988 3.579952 43.921568 7.994554 43.930861 C 12.431963 43.926986 15.983873 40.335287 15.991207 35.923785 C 15.987777 17.957672 0.00131364 17.972265 -0.00211695 0.00615222 " transform="matrix(0.0731756,-0.128459,0.126744,0.0741658,15.23375,15.190678)"/>
<path style="fill-rule:nonzero;fill:rgb(70.588237%,56.470591%,51.764709%);fill-opacity:1;stroke-width:0.1;stroke-linecap:butt;stroke-linejoin:miter;stroke:rgb(100%,84.313726%,0%);stroke-opacity:1;stroke-miterlimit:4;" d="M 0.00211695 0.00615222 C -0.00131364 17.972265 7.998591 17.968004 7.99516 35.934116 C 7.998166 33.716807 6.210807 31.914374 3.98543 31.923994 C 1.796205 31.923667 -0.00173869 33.721068 0.00860126 35.915262 C 0.0025902 40.34988 3.590652 43.931631 8.005254 43.922339 C 12.419857 43.913046 16.002399 40.341357 15.995064 35.929855 C 15.998495 17.963742 -0.00131364 17.972265 0.00211695 0.00615222 " transform="matrix(-0.0731756,0.128459,0.126744,0.0741658,15.23375,15.190678)"/>
</g>
</svg>
