<?xml version="1.0" encoding="UTF-8"?>
<!DOCTYPE svg PUBLIC "-//W3C//DTD SVG 1.1//EN" "http://www.w3.org/Graphics/SVG/1.1/DTD/svg11.dtd">

<svg xmlns="http://www.w3.org/2000/svg" version="1.1" width="400" height="400" viewBox="0 0 400 400">
<!--   <circle cx="150" cy="200" r="50" stroke="rgb(170, 130, 75)" stroke-width="1" fill="none" stroke-dasharray="3,3"/>
  <circle cx="250" cy="200" r="50" stroke="rgb(170, 130, 75)" stroke-width="1" fill="none" stroke-dasharray="3,3"/>
  <circle cx="200" cy="150" r="50" stroke="rgb(170, 130, 75)" stroke-width="1" fill="none" stroke-dasharray="3,3"/>
  <circle cx="200" cy="250" r="50" stroke="rgb(170, 130, 75)" stroke-width="1" fill="none" stroke-dasharray="3,3" /> -->


    <circle cx="150" cy="200" r="50" stroke="#38445a" stroke-width="1" fill="none" stroke-dasharray="3,3"/>
  <circle cx="250" cy="200" r="50" stroke="#38445a" stroke-width="1" fill="none" stroke-dasharray="3,3"/>
  <circle cx="200" cy="150" r="50" stroke="#38445a" stroke-width="1" fill="none" stroke-dasharray="3,3"/>
  <circle cx="200" cy="250" r="50" stroke="#38445a" stroke-width="1" fill="none" stroke-dasharray="3,3" />

  <!-- <g stroke="rgb(170, 130, 75)" transform="translate(200,200)" fill="rgb(235, 210, 140)"> -->

<g stroke="#38445a" transform="translate(200,200)" fill="#54678a"> 
  
    <path d="M 0 0 A50 50 0 0 1 50 50 A50 50 0 0 1 0 0" > </path>
    <path d="M 0 0 A50 50 0 0 1 50 50 A50 50 0 0 1 0 0" transform="rotate(90)"> </path>
    <path d="M 0 0 A50 50 0 0 1 50 50 A50 50 0 0 1 0 0" transform="rotate(180)"> </path>
    <path d="M 0 0 A50 50 0 0 1 50 50 A50 50 0 0 1 0 0" transform="rotate(270)"> </path>
  </g>

  <circle cx="150" cy="200" r="2" stroke="black"  fill="black"/>
  <text x="135" y="195" font-family="Arial" font-size="10" fill="black"> C (-r, 0) </text>

  <circle cx="250" cy="200" r="2" stroke="black"  fill="black"/>
  <text x="235" y="195" font-family="Arial" font-size="10" fill="black"> D (r, 0) </text>

  <circle cx="200" cy="150" r="2" stroke="black"  fill="black"/>
  <text x="190" y="135" font-family="Arial" font-size="10" fill="black"> A (0, r) </text>

  <circle cx="200" cy="250" r="2" stroke="black"  fill="black"/>
  <text x="190" y="265" font-family="Arial" font-size="10" fill="black"> B (0, -r) </text>
</svg>